<?xml version="1.0" encoding="utf-8"?>
<!-- Generator: Adobe Illustrator 23.0.2, SVG Export Plug-In . SVG Version: 6.00 Build 0)  -->
<!DOCTYPE svg PUBLIC "-//W3C//DTD SVG 1.1//EN" "http://www.w3.org/Graphics/SVG/1.1/DTD/svg11.dtd" [
	<!ENTITY ns_extend "http://ns.adobe.com/Extensibility/1.0/">
	<!ENTITY ns_ai "http://ns.adobe.com/AdobeIllustrator/10.0/">
	<!ENTITY ns_graphs "http://ns.adobe.com/Graphs/1.0/">
	<!ENTITY ns_vars "http://ns.adobe.com/Variables/1.0/">
	<!ENTITY ns_imrep "http://ns.adobe.com/ImageReplacement/1.0/">
	<!ENTITY ns_sfw "http://ns.adobe.com/SaveForWeb/1.0/">
	<!ENTITY ns_custom "http://ns.adobe.com/GenericCustomNamespace/1.0/">
	<!ENTITY ns_adobe_xpath "http://ns.adobe.com/XPath/1.0/">
]>
<svg version="1.1" id="Layer_1" xmlns:x="&ns_extend;" xmlns:i="&ns_ai;" xmlns:graph="&ns_graphs;"
	 xmlns="http://www.w3.org/2000/svg" xmlns:xlink="http://www.w3.org/1999/xlink" x="0px" y="0px" viewBox="0 0 207.9 40.4"
	 style="enable-background:new 0 0 207.9 40.4;" xml:space="preserve">
<style type="text/css">
	.st0{enable-background:new    ;}
</style>
<metadata>
	<sfw  xmlns="&ns_sfw;">
		<slices></slices>
		<sliceSourceBounds  bottomLeftOrigin="true" height="36.7" width="204" x="1.6" y="1"></sliceSourceBounds>
	</sfw>
</metadata>
<g class="st0">
	<path d="M4.7,13.9l0,0.3l0.1-0.3l5.3-10.6h1.1L5,15.4H4L1.6,3.3h1L4.7,13.9z"/>
	<path d="M10.7,10.8c0.1-0.9,0.4-1.7,0.8-2.4c0.4-0.7,1-1.3,1.6-1.6c0.6-0.4,1.3-0.6,2.1-0.5c0.7,0,1.4,0.2,1.9,0.6
		c0.5,0.4,0.9,0.9,1.1,1.6c0.2,0.7,0.3,1.4,0.2,2.3l0,0.2c-0.2,1.4-0.7,2.6-1.5,3.4c-0.8,0.9-1.8,1.3-3,1.2c-1,0-1.8-0.4-2.4-1.1
		s-0.9-1.7-0.9-2.9l0-0.5L10.7,10.8z M11.7,11.1c-0.1,0.7,0,1.3,0.1,1.8c0.2,0.6,0.4,1,0.8,1.3s0.8,0.5,1.4,0.5
		c0.6,0,1.1-0.1,1.6-0.5c0.5-0.3,0.9-0.8,1.2-1.3s0.5-1.2,0.6-1.9l0-0.3c0.1-1.1-0.1-1.9-0.5-2.6c-0.4-0.7-1-1-1.9-1
		c-0.9,0-1.7,0.3-2.3,1c-0.6,0.7-1,1.7-1.2,2.8L11.7,11.1z"/>
	<path d="M20,10.8c0.1-0.9,0.4-1.7,0.8-2.4c0.4-0.7,1-1.3,1.6-1.6c0.6-0.4,1.3-0.6,2.1-0.5c0.7,0,1.4,0.2,1.9,0.6
		c0.5,0.4,0.9,0.9,1.1,1.6c0.2,0.7,0.3,1.4,0.2,2.3l0,0.2c-0.2,1.4-0.7,2.6-1.5,3.4c-0.8,0.9-1.8,1.3-3,1.2c-1,0-1.8-0.4-2.4-1.1
		S20,12.7,20,11.5l0-0.5L20,10.8z M21,11.1c-0.1,0.7,0,1.3,0.1,1.8c0.2,0.6,0.4,1,0.8,1.3s0.8,0.5,1.4,0.5c0.6,0,1.1-0.1,1.6-0.5
		c0.5-0.3,0.9-0.8,1.2-1.3s0.5-1.2,0.6-1.9l0-0.3c0.1-1.1-0.1-1.9-0.5-2.6c-0.4-0.7-1-1-1.9-1c-0.9,0-1.7,0.3-2.3,1
		c-0.6,0.7-1,1.7-1.2,2.8L21,11.1z"/>
	<path d="M34.6,7.2c-0.2,0-0.4-0.1-0.7-0.1c-0.6,0-1.2,0.2-1.7,0.6s-0.9,0.9-1.1,1.5l-1.1,6.2h-1l1.6-9h1l-0.3,1.4
		c0.3-0.5,0.7-0.9,1.2-1.2c0.5-0.3,1-0.4,1.5-0.4c0.2,0,0.4,0,0.7,0.1L34.6,7.2z"/>
	<path d="M44.4,15.4c0-0.2,0-0.4,0-0.6l0.1-0.6c-0.4,0.4-0.9,0.8-1.4,1.1c-0.5,0.3-1.1,0.4-1.7,0.4c-0.8,0-1.4-0.3-1.8-0.7
		c-0.5-0.5-0.7-1.1-0.6-1.8c0-0.6,0.2-1.1,0.6-1.5c0.4-0.4,0.9-0.8,1.5-1c0.7-0.2,1.4-0.4,2.2-0.4l1.8,0l0.1-1
		c0.1-0.6-0.1-1.1-0.4-1.5C44.5,7.3,44,7.1,43.3,7c-0.7,0-1.2,0.2-1.7,0.5c-0.5,0.3-0.8,0.8-0.9,1.3h-1c0.1-0.8,0.5-1.4,1.2-1.9
		s1.5-0.7,2.5-0.7c0.9,0,1.6,0.3,2.1,0.8c0.5,0.5,0.7,1.2,0.6,2.1l-0.7,4.5l-0.1,0.7c0,0.3,0,0.6,0.1,0.9l0,0.1H44.4z M41.5,14.7
		c0.6,0,1.2-0.1,1.7-0.4c0.6-0.3,1-0.8,1.4-1.3l0.3-2l-1.6,0c-1,0-1.8,0.2-2.5,0.5c-0.6,0.4-1,0.9-1.1,1.5c0,0.5,0.1,0.9,0.4,1.2
		C40.5,14.5,40.9,14.7,41.5,14.7z"/>
	<path d="M48.8,15.4h-1l2.2-12.8h1L48.8,15.4z"/>
	<path d="M61.6,14.2c-0.7,0.9-1.7,1.3-3,1.3c-0.8,0-1.5-0.3-1.9-0.9s-0.6-1.4-0.4-2.5l1-5.8h1l-1,5.8c0,0.3,0,0.6,0,0.9
		c0,0.5,0.2,0.9,0.5,1.2c0.3,0.3,0.6,0.4,1.1,0.4c0.7,0,1.3-0.1,1.8-0.5s0.9-0.8,1.1-1.3l1.1-6.5h1l-1.6,9h-1L61.6,14.2z"/>
	<path d="M67.2,13.3V14l0.3-0.8l3.3-6.8h0.8l0.9,6.9l0,0.8l0.3-0.9l3-6.9H77l-4.1,9H72l-1-7.1l0-0.5l-0.2,0.5l-3.4,7.1h-0.8l-1-9
		l0.9,0L67.2,13.3z"/>
	<path d="M84.3,10.9L82.9,12l-0.6,3.4h-1l2.2-12.8h1l-1.4,8.1l1-0.9l3.9-3.4h1.3L85,10.2l3.1,5.2H87L84.3,10.9z"/>
	<path d="M95.1,15.4c0-0.2,0-0.4,0-0.6l0.1-0.6c-0.4,0.4-0.9,0.8-1.4,1.1c-0.5,0.3-1.1,0.4-1.7,0.4c-0.8,0-1.4-0.3-1.8-0.7
		c-0.5-0.5-0.7-1.1-0.6-1.8c0-0.6,0.2-1.1,0.6-1.5c0.4-0.4,0.9-0.8,1.5-1c0.7-0.2,1.4-0.4,2.2-0.4l1.8,0l0.1-1
		C96,8.5,95.8,8,95.5,7.6C95.2,7.3,94.7,7.1,94,7c-0.7,0-1.2,0.2-1.7,0.5c-0.5,0.3-0.8,0.8-0.9,1.3h-1c0.1-0.8,0.5-1.4,1.2-1.9
		s1.5-0.7,2.5-0.7c0.9,0,1.6,0.3,2.1,0.8c0.5,0.5,0.7,1.2,0.6,2.1l-0.7,4.5l-0.1,0.7c0,0.3,0,0.6,0.1,0.9l0,0.1H95.1z M92.2,14.7
		c0.6,0,1.2-0.1,1.7-0.4c0.6-0.3,1-0.8,1.4-1.3l0.3-2l-1.6,0c-1,0-1.8,0.2-2.5,0.5c-0.6,0.4-1,0.9-1.1,1.5c0,0.5,0.1,0.9,0.4,1.2
		C91.2,14.5,91.6,14.7,92.2,14.7z"/>
	<path d="M100.9,6.4l-0.3,1.5c0.4-0.6,0.9-1,1.4-1.3c0.5-0.3,1.1-0.4,1.7-0.4c0.9,0,1.5,0.3,1.9,0.9c0.4,0.6,0.5,1.4,0.4,2.4l-1,5.8
		h-1l1-5.9c0-0.3,0-0.6,0-0.9c-0.1-1-0.6-1.5-1.6-1.5c-0.6,0-1.1,0.2-1.6,0.5s-0.9,0.9-1.3,1.6l-1.1,6.2h-1l1.6-9H100.9z"/>
	<path d="M111,4.1l-0.4,2.3h1.8l-0.1,0.8h-1.8l-1,6l0,0.5c0,0.6,0.3,0.9,0.8,0.9c0.2,0,0.4,0,0.8-0.1l0,0.8c-0.3,0.1-0.7,0.1-1,0.1
		c-0.6,0-1-0.2-1.3-0.6s-0.4-1-0.3-1.7l1-6h-1.6l0.1-0.8h1.6l0.4-2.3H111z"/>
	<path d="M113,10.8c0.1-0.9,0.4-1.7,0.8-2.4c0.4-0.7,1-1.3,1.6-1.6c0.6-0.4,1.3-0.6,2.1-0.5c0.7,0,1.4,0.2,1.9,0.6
		c0.5,0.4,0.9,0.9,1.1,1.6c0.2,0.7,0.3,1.4,0.2,2.3l0,0.2c-0.2,1.4-0.7,2.6-1.5,3.4c-0.8,0.9-1.8,1.3-3,1.2c-1,0-1.8-0.4-2.4-1.1
		c-0.6-0.7-0.9-1.7-0.9-2.9l0-0.5L113,10.8z M114,11.1c-0.1,0.7,0,1.3,0.1,1.8c0.2,0.6,0.4,1,0.8,1.3c0.4,0.3,0.8,0.5,1.4,0.5
		c0.6,0,1.1-0.1,1.6-0.5c0.5-0.3,0.9-0.8,1.2-1.3c0.3-0.6,0.5-1.2,0.6-1.9l0-0.3c0.1-1.1-0.1-1.9-0.5-2.6s-1-1-1.9-1
		c-0.9,0-1.7,0.3-2.3,1c-0.6,0.7-1,1.7-1.2,2.8L114,11.1z"/>
	<path d="M122.3,10.8c0.1-0.9,0.4-1.7,0.8-2.4c0.4-0.7,1-1.3,1.6-1.6c0.6-0.4,1.3-0.6,2.1-0.5c0.7,0,1.4,0.2,1.9,0.6
		c0.5,0.4,0.9,0.9,1.1,1.6c0.2,0.7,0.3,1.4,0.2,2.3l0,0.2c-0.2,1.4-0.7,2.6-1.5,3.4c-0.8,0.9-1.8,1.3-3,1.2c-1,0-1.8-0.4-2.4-1.1
		c-0.6-0.7-0.9-1.7-0.9-2.9l0-0.5L122.3,10.8z M123.3,11.1c-0.1,0.7,0,1.3,0.1,1.8c0.2,0.6,0.4,1,0.8,1.3c0.4,0.3,0.8,0.5,1.4,0.5
		c0.6,0,1.1-0.1,1.6-0.5c0.5-0.3,0.9-0.8,1.2-1.3c0.3-0.6,0.5-1.2,0.6-1.9l0-0.3c0.1-1.1-0.1-1.9-0.5-2.6c-0.4-0.7-1-1-1.9-1
		c-0.9,0-1.7,0.3-2.3,1s-1,1.7-1.2,2.8L123.3,11.1z"/>
	<path d="M136.9,7.2c-0.2,0-0.4-0.1-0.7-0.1c-0.6,0-1.2,0.2-1.7,0.6c-0.5,0.4-0.9,0.9-1.1,1.5l-1.1,6.2h-1l1.6-9h1l-0.3,1.4
		c0.3-0.5,0.7-0.9,1.2-1.2c0.5-0.3,1-0.4,1.5-0.4c0.2,0,0.4,0,0.7,0.1L136.9,7.2z"/>
	<path d="M139.5,6.4l-0.3,1.5c0.8-1.1,1.8-1.6,3-1.6c0.6,0,1.2,0.2,1.6,0.5c0.4,0.3,0.7,0.7,0.8,1.3c0.4-0.6,0.9-1,1.4-1.3
		c0.5-0.3,1.1-0.5,1.8-0.4c0.9,0,1.5,0.3,1.9,0.8s0.6,1.3,0.5,2.3l0,0.2l-1,5.9h-1l1-5.9c0-0.3,0-0.6,0-0.9c-0.1-1-0.7-1.5-1.7-1.5
		c-0.7,0-1.3,0.2-1.9,0.7s-0.9,1-1.1,1.7l-1,5.9h-1l1-5.9c0.2-1.5-0.4-2.3-1.7-2.3c-0.6,0-1.2,0.2-1.8,0.6c-0.5,0.4-0.9,0.9-1.1,1.5
		l-1.1,6.2h-1l1.6-9H139.5z"/>
	<path d="M155.3,15.5c-0.7,0-1.3-0.2-1.9-0.6c-0.5-0.4-0.9-0.9-1.2-1.6c-0.2-0.7-0.3-1.4-0.3-2.2l0-0.3c0.1-0.8,0.3-1.6,0.7-2.4
		s0.9-1.3,1.6-1.7c0.6-0.4,1.3-0.6,2-0.6c0.7,0,1.2,0.2,1.7,0.5s0.8,0.8,1,1.5c0.2,0.6,0.3,1.3,0.2,2.1l-0.1,0.6H153l0,0.2
		c-0.1,0.6,0,1.2,0.1,1.7c0.2,0.6,0.5,1,0.8,1.3c0.4,0.3,0.9,0.5,1.4,0.5c0.5,0,1-0.1,1.4-0.3c0.4-0.2,0.8-0.5,1.2-0.9l0.6,0.5
		c-0.4,0.5-0.9,0.9-1.4,1.2C156.6,15.4,156,15.5,155.3,15.5z M156.4,7.1c-0.7,0-1.4,0.2-1.9,0.8c-0.6,0.5-1,1.3-1.3,2.3l5.2,0l0-0.1
		c0.1-0.8,0-1.5-0.4-2C157.6,7.4,157.1,7.1,156.4,7.1z"/>
	<path d="M166.3,14.2c-0.7,0.9-1.7,1.3-3,1.3c-0.8,0-1.5-0.3-1.9-0.9s-0.6-1.4-0.4-2.5l1-5.8h1l-1,5.8c0,0.3,0,0.6,0,0.9
		c0,0.5,0.2,0.9,0.5,1.2c0.3,0.3,0.6,0.4,1.1,0.4c0.7,0,1.3-0.1,1.8-0.5s0.9-0.8,1.1-1.3l1.1-6.5h1l-1.6,9h-1L166.3,14.2z"/>
	<path d="M177.3,10.9c-0.2,1.4-0.6,2.6-1.4,3.4c-0.7,0.8-1.6,1.2-2.7,1.2c-0.6,0-1.1-0.1-1.5-0.4s-0.8-0.6-1-1l-0.3,1.2h-0.9
		l2.2-12.8h1l-0.9,5.1c0.8-1,1.7-1.5,2.9-1.5c0.9,0,1.5,0.3,2,1c0.5,0.6,0.7,1.5,0.7,2.5c0,0.4,0,0.7,0,1L177.3,10.9z M176.3,10.7
		l0.1-0.8c0-0.9-0.1-1.6-0.5-2.1s-0.8-0.7-1.5-0.8c-1.2,0-2.2,0.6-2.8,1.8l-0.7,4.1c0.2,0.5,0.4,0.9,0.8,1.2
		c0.4,0.3,0.9,0.4,1.4,0.5c0.8,0,1.5-0.3,2.1-1C175.8,13.1,176.1,12.1,176.3,10.7z"/>
	<path d="M179.8,15.4h-1l1.6-9h1L179.8,15.4z M180.7,3.8c0-0.4,0.3-0.6,0.7-0.7c0.2,0,0.4,0.1,0.5,0.2c0.1,0.1,0.2,0.3,0.2,0.5
		c-0.1,0.2-0.1,0.4-0.2,0.5c-0.1,0.1-0.3,0.2-0.5,0.2C180.9,4.4,180.6,4.2,180.7,3.8z"/>
	<path d="M183.6,15.4h-1l2.2-12.8h1L183.6,15.4z"/>
	<path d="M191.9,15.4c0-0.2,0-0.4,0-0.6l0.1-0.6c-0.4,0.4-0.9,0.8-1.4,1.1s-1.1,0.4-1.7,0.4c-0.8,0-1.4-0.3-1.8-0.7
		c-0.5-0.5-0.7-1.1-0.6-1.8c0-0.6,0.2-1.1,0.6-1.5s0.9-0.8,1.5-1c0.7-0.2,1.4-0.4,2.3-0.4l1.8,0l0.1-1c0.1-0.6-0.1-1.1-0.4-1.5
		c-0.3-0.4-0.8-0.6-1.5-0.6c-0.7,0-1.2,0.2-1.7,0.5s-0.8,0.8-0.9,1.3h-1c0.1-0.8,0.5-1.4,1.2-1.9s1.5-0.7,2.5-0.7
		c0.9,0,1.6,0.3,2.1,0.8c0.5,0.5,0.7,1.2,0.6,2.1l-0.7,4.5l-0.1,0.7c0,0.3,0,0.6,0.1,0.9l0,0.1H191.9z M188.9,14.7
		c0.6,0,1.2-0.1,1.7-0.4c0.6-0.3,1-0.8,1.4-1.3l0.3-2l-1.6,0c-1,0-1.8,0.2-2.5,0.5c-0.6,0.4-1,0.9-1.1,1.5c0,0.5,0.1,0.9,0.4,1.2
		C188,14.5,188.4,14.7,188.9,14.7z"/>
	<path d="M196.3,15.4h-1l1.6-9h1L196.3,15.4z M197.1,3.8c0-0.4,0.3-0.6,0.7-0.7c0.2,0,0.4,0.1,0.5,0.2c0.1,0.1,0.2,0.3,0.2,0.5
		c-0.1,0.2-0.1,0.4-0.2,0.5c-0.1,0.1-0.3,0.2-0.5,0.2C197.3,4.4,197.1,4.2,197.1,3.8z"/>
	<path d="M204.4,7.2c-0.2,0-0.4-0.1-0.7-0.1c-0.6,0-1.2,0.2-1.7,0.6c-0.5,0.4-0.9,0.9-1.1,1.5l-1.1,6.2h-1l1.6-9h1l-0.3,1.4
		c0.3-0.5,0.7-0.9,1.2-1.2c0.5-0.3,1-0.4,1.5-0.4c0.2,0,0.4,0,0.7,0.1L204.4,7.2z"/>
	<path d="M203,17.6l-0.6-0.5c0.6-0.7,1-1.5,1.1-2.2l0.2-1.2h1l-0.2,1.2C204.4,16,203.9,16.9,203,17.6z"/>
</g>
<g class="st0">
	<path d="M27.1,34.9h5.6l-0.1,0.8h-6.9l0.1-0.8l6.5-7.3h-5.1l0.1-0.9h6.4l-0.1,0.8L27.1,34.9z"/>
	<path d="M34.5,31.2c0.1-0.9,0.4-1.7,0.8-2.4c0.4-0.7,1-1.3,1.6-1.6c0.6-0.4,1.3-0.6,2.1-0.5c0.7,0,1.4,0.2,1.9,0.6
		c0.5,0.4,0.9,0.9,1.1,1.6c0.2,0.7,0.3,1.4,0.2,2.3l0,0.2c-0.2,1.4-0.7,2.6-1.5,3.4c-0.8,0.9-1.8,1.3-3,1.2c-1,0-1.8-0.4-2.4-1.1
		s-0.9-1.7-0.9-2.9l0-0.5L34.5,31.2z M35.5,31.5c-0.1,0.7,0,1.3,0.1,1.8c0.2,0.6,0.4,1,0.8,1.3s0.8,0.5,1.4,0.5
		c0.6,0,1.1-0.1,1.6-0.5c0.5-0.3,0.9-0.8,1.2-1.3s0.5-1.2,0.6-1.9l0-0.3c0.1-1.1-0.1-1.9-0.5-2.6c-0.4-0.7-1-1-1.9-1
		c-0.9,0-1.7,0.3-2.3,1c-0.6,0.7-1,1.7-1.2,2.8L35.5,31.5z"/>
	<path d="M46,33.7v0.7l0.3-0.8l3.3-6.8h0.8l0.9,6.9l0,0.8l0.3-0.9l3-6.9h1.1l-4.1,9h-0.8l-1-7.1l0-0.5l-0.2,0.5l-3.4,7.1h-0.8l-1-9
		l0.9,0L46,33.7z"/>
	<path d="M59.7,35.9c-0.7,0-1.3-0.2-1.9-0.6c-0.5-0.4-0.9-0.9-1.2-1.6c-0.2-0.7-0.3-1.4-0.3-2.2l0-0.3c0.1-0.8,0.3-1.6,0.7-2.4
		s0.9-1.3,1.6-1.7s1.3-0.6,2-0.6c0.7,0,1.2,0.2,1.7,0.5c0.5,0.4,0.8,0.8,1,1.5s0.3,1.3,0.2,2.1l-0.1,0.6h-6.2l0,0.2
		c-0.1,0.6,0,1.2,0.1,1.7s0.5,1,0.8,1.3c0.4,0.3,0.9,0.5,1.4,0.5c0.5,0,1-0.1,1.4-0.3c0.4-0.2,0.8-0.5,1.2-0.9l0.6,0.5
		c-0.4,0.5-0.9,0.9-1.4,1.2C60.9,35.8,60.3,35.9,59.7,35.9z M60.7,27.5c-0.7,0-1.4,0.2-1.9,0.8s-1,1.3-1.3,2.3l5.2,0l0-0.1
		c0.1-0.8,0-1.5-0.4-2S61.4,27.5,60.7,27.5z"/>
	<path d="M65.8,35.8h-1L67,23h1L65.8,35.8z"/>
	<path d="M75.1,26.8l-0.3,1.5c0.4-0.6,0.9-1,1.4-1.3c0.5-0.3,1.1-0.4,1.7-0.4c0.9,0,1.5,0.3,1.9,0.9c0.4,0.6,0.5,1.4,0.4,2.4l-1,5.8
		h-1l1-5.9c0-0.3,0-0.6,0-0.9c-0.1-1-0.6-1.5-1.6-1.5c-0.6,0-1.1,0.2-1.6,0.5s-0.9,0.9-1.3,1.6l-1.1,6.2h-1l1.6-9H75.1z"/>
	<path d="M82.8,35.8h-1l1.6-9h1L82.8,35.8z M83.7,24.2c0-0.4,0.3-0.6,0.7-0.7c0.2,0,0.4,0.1,0.5,0.2c0.1,0.1,0.2,0.3,0.2,0.5
		c-0.1,0.2-0.1,0.4-0.2,0.5s-0.3,0.2-0.5,0.2C83.8,24.8,83.6,24.6,83.7,24.2z"/>
	<path d="M89,35.9c-0.7,0-1.3-0.2-1.9-0.6c-0.5-0.4-0.9-0.9-1.2-1.6c-0.2-0.7-0.3-1.4-0.3-2.2l0-0.3c0.1-0.8,0.3-1.6,0.7-2.4
		s0.9-1.3,1.6-1.7s1.3-0.6,2-0.6c0.7,0,1.2,0.2,1.7,0.5c0.5,0.4,0.8,0.8,1,1.5s0.3,1.3,0.2,2.1L93,31.3h-6.2l0,0.2
		c-0.1,0.6,0,1.2,0.1,1.7s0.5,1,0.8,1.3c0.4,0.3,0.9,0.5,1.4,0.5c0.5,0,1-0.1,1.4-0.3c0.4-0.2,0.8-0.5,1.2-0.9l0.6,0.5
		c-0.4,0.5-0.9,0.9-1.4,1.2C90.3,35.8,89.7,35.9,89,35.9z M90.1,27.5c-0.7,0-1.4,0.2-1.9,0.8s-1,1.3-1.3,2.3l5.2,0l0-0.1
		c0.1-0.8,0-1.5-0.4-2S90.8,27.5,90.1,27.5z"/>
	<path d="M100,34.6c-0.7,0.9-1.7,1.3-3,1.3c-0.8,0-1.5-0.3-1.9-0.9s-0.6-1.4-0.4-2.5l1-5.8h1l-1,5.8c0,0.3,0,0.6,0,0.9
		c0,0.5,0.2,0.9,0.5,1.2c0.3,0.3,0.6,0.4,1.1,0.4c0.7,0,1.3-0.1,1.8-0.5s0.9-0.8,1.1-1.3l1.1-6.5h1l-1.6,9h-1L100,34.6z"/>
	<path d="M105.7,33.7v0.7l0.3-0.8l3.3-6.8h0.8l0.9,6.9l0,0.8l0.3-0.9l3-6.9h1.1l-4.1,9h-0.8l-1-7.1l0-0.5l-0.2,0.5l-3.4,7.1H105
		l-1-9l0.9,0L105.7,33.7z"/>
	<path d="M125.4,35.8c0-0.2,0-0.4,0-0.6l0.1-0.6c-0.4,0.4-0.9,0.8-1.4,1.1s-1.1,0.4-1.7,0.4c-0.8,0-1.4-0.3-1.8-0.7
		c-0.5-0.5-0.7-1.1-0.6-1.8c0-0.6,0.2-1.1,0.6-1.5s0.9-0.8,1.5-1c0.7-0.2,1.4-0.4,2.3-0.4l1.8,0l0.1-1c0.1-0.6-0.1-1.1-0.4-1.5
		c-0.3-0.4-0.8-0.6-1.5-0.6c-0.7,0-1.2,0.2-1.7,0.5s-0.8,0.8-0.9,1.3h-1c0.1-0.8,0.5-1.4,1.2-1.9s1.5-0.7,2.5-0.7
		c0.9,0,1.6,0.3,2.1,0.8c0.5,0.5,0.7,1.2,0.6,2.1l-0.7,4.5l-0.1,0.7c0,0.3,0,0.6,0.1,0.9l0,0.1H125.4z M122.5,35.1
		c0.6,0,1.2-0.1,1.7-0.4c0.6-0.3,1-0.8,1.4-1.3l0.3-2l-1.6,0c-1,0-1.8,0.2-2.5,0.5c-0.6,0.4-1,0.9-1.1,1.5c0,0.5,0.1,0.9,0.4,1.2
		C121.5,34.9,122,35.1,122.5,35.1z"/>
	<path d="M129.8,35.8h-1l2.2-12.8h1L129.8,35.8z"/>
	<path d="M138.2,33.4c0.1-0.8-0.4-1.3-1.4-1.7l-1.4-0.4c-1.3-0.4-1.9-1.2-1.9-2.2c0-0.7,0.4-1.4,1-1.8s1.4-0.7,2.3-0.7
		c0.9,0,1.6,0.3,2.1,0.7s0.8,1.1,0.8,1.9h-1c0-0.5-0.1-1-0.5-1.3c-0.4-0.3-0.9-0.5-1.5-0.5c-0.6,0-1.2,0.1-1.6,0.4s-0.7,0.7-0.7,1.2
		c-0.1,0.7,0.4,1.2,1.3,1.5l1,0.3l0.6,0.2c1.3,0.5,1.8,1.2,1.8,2.3c0,0.7-0.4,1.3-0.9,1.8c-0.6,0.5-1.3,0.7-2.2,0.8l-0.3,0
		c-0.6,0-1.1-0.1-1.6-0.4c-0.5-0.2-0.9-0.5-1.1-0.9c-0.3-0.4-0.4-0.9-0.3-1.4l1,0c0,0.6,0.2,1,0.6,1.3s0.9,0.5,1.6,0.5
		c0.7,0,1.2-0.2,1.7-0.5S138.1,33.9,138.2,33.4z"/>
	<path d="M149.5,26.6c0.5,0,1,0.1,1.5,0.4c0.4,0.2,0.8,0.6,1,1.1l0.3-1.3h0.9l-1.5,8.8c-0.1,0.8-0.3,1.4-0.7,2
		c-0.4,0.6-0.8,1-1.4,1.3c-0.6,0.3-1.2,0.5-1.9,0.4c-0.6,0-1.1-0.2-1.6-0.4c-0.5-0.3-0.9-0.7-1.3-1.2l0.6-0.6
		c0.6,0.9,1.3,1.3,2.2,1.3c0.8,0,1.5-0.2,2.1-0.7c0.6-0.5,0.9-1.2,1-2.1l0.2-1c-0.8,0.9-1.8,1.4-2.9,1.3c-0.8,0-1.5-0.3-2-1
		c-0.5-0.6-0.7-1.5-0.7-2.5c0-1,0.1-2,0.5-2.9c0.4-1,0.9-1.7,1.5-2.2S148.7,26.6,149.5,26.6z M146.4,31.4l0,0.8
		c0,0.9,0.1,1.6,0.5,2.1c0.3,0.5,0.8,0.8,1.5,0.8c0.6,0,1.1-0.1,1.6-0.4s0.9-0.7,1.2-1.3l0.7-4.2c-0.1-0.5-0.4-1-0.8-1.3
		s-0.8-0.5-1.4-0.5c-0.8,0-1.5,0.3-2.1,1C147,29.1,146.6,30.1,146.4,31.4z"/>
	<path d="M157.8,35.9c-0.7,0-1.3-0.2-1.9-0.6c-0.5-0.4-0.9-0.9-1.2-1.6c-0.2-0.7-0.3-1.4-0.3-2.2l0-0.3c0.1-0.8,0.3-1.6,0.7-2.4
		s0.9-1.3,1.6-1.7c0.6-0.4,1.3-0.6,2-0.6c0.7,0,1.2,0.2,1.7,0.5s0.8,0.8,1,1.5c0.2,0.6,0.3,1.3,0.2,2.1l-0.1,0.6h-6.2l0,0.2
		c-0.1,0.6,0,1.2,0.1,1.7c0.2,0.6,0.5,1,0.8,1.3c0.4,0.3,0.9,0.5,1.4,0.5c0.5,0,1-0.1,1.4-0.3c0.4-0.2,0.8-0.5,1.2-0.9l0.6,0.5
		c-0.4,0.5-0.9,0.9-1.4,1.2C159.1,35.8,158.5,35.9,157.8,35.9z M158.9,27.5c-0.7,0-1.4,0.2-1.9,0.8c-0.6,0.5-1,1.3-1.3,2.3l5.2,0
		l0-0.1c0.1-0.8,0-1.5-0.4-2C160.1,27.8,159.6,27.5,158.9,27.5z"/>
	<path d="M170.7,31.3c-0.2,1.4-0.6,2.6-1.4,3.4s-1.6,1.2-2.7,1.2c-0.6,0-1.1-0.1-1.5-0.4c-0.4-0.2-0.8-0.6-1-1l-0.3,1.2h-0.9
		l2.2-12.8h1l-0.9,5.1c0.8-1,1.7-1.5,2.9-1.5c0.9,0,1.5,0.3,2,1c0.5,0.6,0.7,1.5,0.7,2.5c0,0.4,0,0.7,0,1L170.7,31.3z M169.7,31.1
		l0.1-0.8c0-0.9-0.1-1.6-0.5-2.1s-0.8-0.7-1.5-0.8c-1.2,0-2.2,0.6-2.8,1.8l-0.7,4.1c0.2,0.5,0.4,0.9,0.8,1.2
		c0.4,0.3,0.9,0.4,1.4,0.5c0.8,0,1.5-0.3,2.1-1C169.2,33.5,169.5,32.5,169.7,31.1z"/>
	<path d="M177.6,27.6c-0.2,0-0.4-0.1-0.7-0.1c-0.6,0-1.2,0.2-1.7,0.6c-0.5,0.4-0.9,0.9-1.1,1.5l-1.1,6.2h-1l1.6-9h1l-0.3,1.4
		c0.3-0.5,0.7-0.9,1.2-1.2c0.5-0.3,1-0.4,1.5-0.4c0.2,0,0.4,0,0.7,0.1L177.6,27.6z"/>
	<path d="M183.7,34.6c-0.7,0.9-1.7,1.3-3,1.3c-0.8,0-1.5-0.3-1.9-0.9s-0.6-1.4-0.4-2.5l1-5.8h1l-1,5.8c0,0.3,0,0.6,0,0.9
		c0,0.5,0.2,0.9,0.5,1.2c0.3,0.3,0.6,0.4,1.1,0.4c0.7,0,1.3-0.1,1.8-0.5s0.9-0.8,1.1-1.3l1.1-6.5h1l-1.6,9h-1L183.7,34.6z"/>
	<path d="M188,35.8h-1l1.6-9h1L188,35.8z M188.8,24.2c0-0.4,0.3-0.6,0.7-0.7c0.2,0,0.4,0.1,0.5,0.2c0.1,0.1,0.2,0.3,0.2,0.5
		c-0.1,0.2-0.1,0.4-0.2,0.5c-0.1,0.1-0.3,0.2-0.5,0.2C189,24.8,188.8,24.6,188.8,24.2z"/>
	<path d="M193.5,31.3l-1.3,1.1l-0.6,3.4h-1l2.2-12.8h1l-1.4,8.1l1-0.9l3.9-3.4h1.3l-4.4,3.8l3.1,5.2h-1.1L193.5,31.3z"/>
	<path d="M202.3,24.5l-0.4,2.3h1.8l-0.1,0.8h-1.8l-1,6l0,0.5c0,0.6,0.3,0.9,0.8,0.9c0.2,0,0.4,0,0.8-0.1l0,0.8
		c-0.3,0.1-0.7,0.1-1,0.1c-0.6,0-1-0.2-1.3-0.6s-0.4-1-0.3-1.7l1-6h-1.6l0.1-0.8h1.6l0.4-2.3H202.3z"/>
	<path d="M204.2,35.2c0-0.2,0.1-0.4,0.2-0.5c0.1-0.1,0.3-0.2,0.5-0.2c0.2,0,0.4,0.1,0.5,0.2c0.1,0.1,0.2,0.3,0.2,0.5
		c0,0.2-0.1,0.4-0.2,0.5c-0.1,0.1-0.3,0.2-0.5,0.2c-0.2,0-0.4-0.1-0.5-0.2C204.2,35.5,204.2,35.4,204.2,35.2z"/>
</g>
</svg>
