<?xml version="1.0" encoding="utf-8"?>
<!-- Generator: Adobe Illustrator 23.0.1, SVG Export Plug-In . SVG Version: 6.00 Build 0)  -->
<!DOCTYPE svg PUBLIC "-//W3C//DTD SVG 1.1//EN" "http://www.w3.org/Graphics/SVG/1.1/DTD/svg11.dtd" [
	<!ENTITY ns_extend "http://ns.adobe.com/Extensibility/1.0/">
	<!ENTITY ns_ai "http://ns.adobe.com/AdobeIllustrator/10.0/">
	<!ENTITY ns_graphs "http://ns.adobe.com/Graphs/1.0/">
	<!ENTITY ns_vars "http://ns.adobe.com/Variables/1.0/">
	<!ENTITY ns_imrep "http://ns.adobe.com/ImageReplacement/1.0/">
	<!ENTITY ns_sfw "http://ns.adobe.com/SaveForWeb/1.0/">
	<!ENTITY ns_custom "http://ns.adobe.com/GenericCustomNamespace/1.0/">
	<!ENTITY ns_adobe_xpath "http://ns.adobe.com/XPath/1.0/">
]>
<svg version="1.1" id="Laag_1" xmlns:x="&ns_extend;" xmlns:i="&ns_ai;" xmlns:graph="&ns_graphs;"
	 xmlns="http://www.w3.org/2000/svg" xmlns:xlink="http://www.w3.org/1999/xlink" x="0px" y="0px" viewBox="0 0 98.1 794.5"
	 style="enable-background:new 0 0 98.1 794.5;" xml:space="preserve">
<style type="text/css">
	.st0{fill:#26326A;}
	.st1{fill:#0760AB;}
	.st2{fill:#2C2D6F;}
	.st3{fill:#802576;}
	.st4{fill:#5ABDED;}
	.st5{fill:#23376F;}
	.st6{fill:#286DB5;}
</style>
<metadata>
	<sfw  xmlns="&ns_sfw;">
		<slices></slices>
		<sliceSourceBounds  bottomLeftOrigin="true" height="794.1" width="97.3" x="249.3" y="-818.7"></sliceSourceBounds>
	</sfw>
</metadata>
<path class="st0" d="M79.4,694.6c0,2.6,0.9,3.9,2.8,3.9c1.8,0,2.6-1.1,2.6-3.3c0-1.6-0.4-3.1-1.3-4.6h-3.9
	C79.5,692,79.4,693.4,79.4,694.6z M82.2,699.8c-2.6,0-3.9-1.8-3.9-5.2c0-1.3,0.1-2.5,0.3-3.9h-1.6c-2,0-3,1.3-3,3.8
	c0,1.4,0.2,2.8,0.6,4.3h-1.1c-0.4-1.4-0.6-2.8-0.6-4.3c0-3.4,1.3-5.1,4.1-5.1h9v0.8l-1.3,0.3c0.8,1.7,1.3,3.3,1.3,4.8
	C85.8,698.3,84.7,699.8,82.2,699.8z"/>
<path class="st0" d="M72.8,669h13.2v1l-1.7,0.2c1.1,1.5,1.7,3.2,1.7,5c0,3.1-1.6,4.7-4.9,4.7h-8.2v-1.3h8.3c2.4,0,3.7-1.2,3.7-3.4
	c0-1.7-0.6-3.3-1.7-4.8H72.8V669z"/>
<path class="st0" d="M70.6,659.5v-0.9l2.1-0.3v-3.9h1.1v3.9h8.3c1.8,0,2.6-0.7,2.6-1.9v-1.9h1.1v1.9c0,2.1-1.2,3.2-3.5,3.2H70.6z"/>
<path class="st0" d="M84.8,640.6c0-3.2-1.8-4.9-5.6-4.9c-3.7,0-5.5,1.6-5.5,4.9s1.8,4.9,5.5,4.9C83,645.4,84.8,643.8,84.8,640.6z
	 M79.3,646.8c-4.4,0-6.7-2-6.7-6.1c0-4.1,2.3-6.1,6.7-6.1s6.7,2,6.7,6.1C86,644.7,83.7,646.7,79.3,646.8z"/>
<path class="st0" d="M85.8,625.6H72.8v-0.9l1.7-0.2c-1.1-1.3-1.7-2.8-1.7-4.4c0-2.1,0.6-3.4,1.8-4c-1.2-1.5-1.8-3-1.8-4.6
	c0-2.9,1.4-4.4,4.4-4.4h8.8v1.3h-8.8c-2.1,0-3.2,1-3.2,3.1c0,1.7,0.6,3,1.7,4.1h10.2v1.3h-9c-2,0-3,1.1-3,3.2c0,1.6,0.6,2.9,1.7,4.1
	h10.2L85.8,625.6L85.8,625.6z"/>
<path class="st0" d="M79.4,593.2c0,2.6,0.9,3.9,2.8,3.9c1.8,0,2.6-1.1,2.6-3.3c0-1.6-0.4-3.1-1.3-4.6h-3.9
	C79.5,590.6,79.4,591.9,79.4,593.2z M82.2,598.4c-2.6,0-3.9-1.8-3.9-5.2c0-1.3,0.1-2.5,0.3-3.9h-1.6c-2,0-3,1.3-3,3.8
	c0,1.4,0.2,2.8,0.6,4.3h-1.1c-0.4-1.4-0.6-2.8-0.6-4.3c0-3.4,1.3-5.1,4.1-5.1h9v0.8l-1.3,0.3c0.8,1.7,1.3,3.3,1.3,4.8
	C85.8,596.8,84.7,598.4,82.2,598.4z"/>
<path class="st0" d="M70.6,578.4v-0.9l2.1-0.3v-3.9h1.1v3.9h8.3c1.8,0,2.6-0.7,2.6-1.9v-1.9h1.1v1.9c0,2.1-1.2,3.2-3.5,3.2H70.6z"/>
<path class="st0" d="M72.8,563.5h13.2v1.3H72.8V563.5z M68,563.3h1.5v1.6H68V563.3z"/>
<path class="st0" d="M85.3,554H84c0.5-1.4,0.8-2.9,0.8-4.3c0-2.8-0.8-4.1-2.6-4.1c-1.4,0-2.1,1-2.1,3.1v1.7c0,2.8-1.2,4.1-3.5,4.1
	c-2.5,0-3.8-1.8-3.8-5.4c0-1.4,0.2-2.8,0.6-4.3h1.3c-0.5,1.4-0.8,2.9-0.8,4.3c0,2.8,0.8,4.2,2.6,4.2c1.5,0,2.3-0.9,2.3-2.8v-1.7
	c0-2.9,1.1-4.4,3.4-4.4c2.5,0,3.8,1.8,3.8,5.4C85.8,551.1,85.7,552.5,85.3,554z"/>
<path class="st0" d="M78.4,534.6v-8.7c-3,0.1-4.6,1.4-4.6,4.1C73.9,532.9,75.4,534.5,78.4,534.6z M72.8,530c0-3.6,2-5.4,5.9-5.4
	c0.3,0,0.6,0,0.9,0v10c3.4,0,5.2-1.8,5.2-5.4c0-1.5-0.2-2.8-0.6-4h1c0.4,1.2,0.6,2.5,0.6,4c0,4.5-2.3,6.8-6.7,6.8
	C74.9,535.9,72.8,533.9,72.8,530z"/>
<path class="st0" d="M85.8,515.8H72.8v-0.9l2.2-0.2c-1.4-1.3-2.2-2.8-2.2-4.4h1.1c0,1.6,0.8,2.9,2.3,4.2h9.8L85.8,515.8L85.8,515.8z
	"/>
<path class="st0" d="M72.8,500.8h13.2v1.3H72.8V500.8z M68,500.6h1.5v1.6H68V500.6z"/>
<path class="st0" d="M85.8,491H72.8V490l1.7-0.2c-1.1-1.7-1.7-3.4-1.7-4.9c0-3.2,1.3-4.8,4.1-4.8h9v1.3h-9c-1.9,0-2.9,1.2-2.9,3.5
	c0,1.6,0.6,3.1,1.7,4.7h10.3L85.8,491L85.8,491z"/>
<path class="st0" d="M74.2,461c-0.2,1.2-0.3,2.4-0.3,3.6c0,3.5,1.8,5.3,5.3,5.3c3.6,0,5.4-1.7,5.4-4.9c0-1.2-0.3-2.5-0.7-3.9H74.2z
	 M85.8,459.8c3.2,0,4.8,1.9,4.8,5.8c0,1.6-0.2,3-0.6,4.3h-1.1c0.4-1.3,0.6-2.7,0.6-4.4c0-2.9-1.2-4.4-3.6-4.4h-0.7
	c0.4,1.5,0.6,2.8,0.6,3.9c0,4.2-2.2,6.2-6.6,6.2c-4.4,0-6.5-2.3-6.5-6.7c0-1.7,0.2-3.3,0.5-4.8L85.8,459.8L85.8,459.8z"/>
<path class="st0" d="M44.9,703.8c11.3,0,16.9-5.4,16.9-16.4c0-3.1-0.3-6-0.9-8.7h-2.8c0.6,2.9,0.9,5.7,0.9,8.4
	c0,8.8-4.7,13.2-14.2,13.2c-8.5,0-12.9-4.4-12.9-13.2c0-2.7,0.3-5.4,0.9-8.4h-2.8c-0.6,2.7-0.9,5.6-0.9,8.7
	C29.2,698.4,34.4,703.8,44.9,703.8z"/>
<path class="st0" d="M59.3,660.6c0,8-4.6,12-13.9,12c-9.1,0-13.7-4-13.7-12s4.5-12,13.7-12C54.6,648.7,59.3,652.6,59.3,660.6z
	 M28.9,660.6c0,10.1,5.5,15.2,16.6,15.2c11.1,0,16.6-5.1,16.6-15.2c0-10.1-5.5-15.2-16.6-15.2C34.4,645.4,28.9,650.5,28.9,660.6z"/>
<path class="st0" d="M29.2,605.4c0,3.9,1.5,7.6,4.4,11.4c-3,1.5-4.4,4.9-4.4,10c0,3.9,1.3,7.5,4.1,10.8l-4.1,0.3v2.3h32.6V637H36.3
	c-2.8-2.9-4.2-6.4-4.2-10.2c0-5.3,2.4-8,7.4-8h22.3v-3.3H36.3c-2.8-2.7-4.2-6-4.2-10.1c0-5.1,2.6-7.7,7.9-7.7h21.8v-3.3H40
	C32.8,594.5,29.2,598.1,29.2,605.4z"/>
<path class="st0" d="M29.2,552.9c0,3.9,1.5,7.6,4.4,11.4c-3,1.5-4.4,4.9-4.4,10c0,3.9,1.3,7.5,4.1,10.8l-4.1,0.3v2.3h32.6v-3.3H36.3
	c-2.8-2.9-4.2-6.4-4.2-10.2c0-5.3,2.4-8,7.4-8h22.3V563H36.3c-2.8-2.7-4.2-6-4.2-10.1c0-5.1,2.6-7.7,7.9-7.7h21.8v-3.3H40
	C32.8,542,29.2,545.6,29.2,552.9z"/>
<path class="st1" d="M58.6,522.9c0,2.8-0.6,5.8-1.7,9.1H32.8c-0.5-3.2-0.8-6.3-0.8-9.1c0-8.4,4.2-12.6,12.5-12.6
	C53.9,510.2,58.6,514.4,58.6,522.9z M29.2,522.7c0,4.6,0.4,8.8,1.3,12.5h43c-0.8-0.8-1.3-1.9-1.6-3.3H60.2c1-3.4,1.6-6.5,1.6-9.1
	c0-10.5-5.7-15.8-17.1-15.8C34.3,507,29.2,512.3,29.2,522.7z"/>
<path class="st1" d="M34.6,499.2l-5.4,0.4v2.3h32.6v-3.3H37.5c-3.8-3-5.7-6.5-5.7-10.4h-2.6C29.2,492.2,31,495.9,34.6,499.2z"/>
<path class="st1" d="M59.3,471.7c0,8-4.6,12-13.9,12c-9.1,0-13.7-4-13.7-12c0-8,4.5-12,13.7-12C54.6,459.7,59.3,463.7,59.3,471.7z
	 M28.9,471.7c0,10.1,5.5,15.2,16.6,15.2c11.1,0,16.6-5.1,16.6-15.2c0-10.1-5.5-15.2-16.6-15.2C34.4,456.4,28.9,461.5,28.9,471.7z"/>
<path class="st2" d="M73.1,531.9c0.1,0.4,0.3,0.8,0.4,1.2v-1.2H73.1z"/>
<path class="st0" d="M42.7,733.1c7.4,1.7,15.7,6.5,22.8,13.8c13.7,13.9,18.6,31,10.9,38.6c-7.6,7.6-25,2.8-38.6-10.9
	c-6.9-6.9-11.5-14.7-13.5-21.6c-0.9,3-1.4,6.2-1.4,9.6c0,17.5,14.2,31.8,31.8,31.8c17.5,0,31.8-14.2,31.8-31.8s-14.2-31.8-31.8-31.8
	C50.4,730.8,46.4,731.6,42.7,733.1z"/>
<path class="st1" d="M25.4,722.8c-7.2,5.9-7,18.8-0.4,32.3c-2.8-7.8-2.3-14.9,1.9-19.1c7.7-7.6,25.1-2.9,38.6,10.9
	c13.6,13.8,18.5,30.9,10.8,38.5c-0.2,0.2-0.3,0.3-0.6,0.5c0.2-0.1,0.3-0.2,0.4-0.3c9.6-7.8,3.1-31.8-8-45.5
	C54.3,722.8,35.1,715.1,25.4,722.8z"/>
<path class="st3" d="M26.4,732.6c-4.9,4.8-5.2,13.3-1.4,22.6c-2.8-7.8-2.3-14.9,1.9-19.1c7.7-7.6,25.1-2.9,38.6,10.9
	c11.3,11.5,16.6,25.2,13.7,33.9c3.4-9.4-3.4-26.1-12.8-36C52.4,730.3,34.6,724.8,26.4,732.6z"/>
<g>
	<path class="st4" d="M84.4,345.2c-9.5-0.6-18.9-2.7-27.9-5.5c-18.1-5.6-34.6-15.6-48.3-28.2l-4.8,1.7c-1,0.6-1.9,1.2-2.9,1.8l0,0
		c14.3,13.2,36.2,24,55,28.5c9.5,2.3,19.2,3.4,28.9,3.4c2.9,0,5.7-0.1,8.5-0.3l-0.4-0.8C90.3,345.7,87.6,345.5,84.4,345.2z"/>
	<path class="st4" d="M80.2,355.4c-9.9-1.2-19.7-3.5-29-6.7C34.7,343,19.5,334,6.9,322.4c-2.2,1.4-4.3,2.9-6.2,4.3
		c15.2,12.7,32.6,21.1,49.3,25.7c9.8,2.8,19.9,4.4,30,5c5.9,0.4,11.9,0.4,17.8,0.1l-0.4-0.8C91.6,356.5,85.9,356.1,80.2,355.4z"/>
</g>
<g>
	<path class="st5" d="M73.4,278.3l-33.2-18.6L73.4,241v4.8L62.1,252l3.8,7.6l-3.8,7.6l11.3,6.3V278.3z M61.4,266.8v-14.4L48,259.6
		L61.4,266.8z"/>
	<path class="st5" d="M73.4,239.8H41.3l-0.8-3.3h32.7L73.4,239.8L73.4,239.8z"/>
	<path class="st5" d="M52.7,233.1l-2.4-0.4v-2.6h-5.8l-1.4-3.3h7.3v-6.1l2.4,0.6v5.5h12.1h0.4H67c2.7,0,3.9-1.8,3.9-5.3v-0.8h2.5
		l0.1,0.8c0,3.3-0.6,5.6-1.8,6.8c-1.2,1.3-3.4,1.8-6.8,1.8H52.7V233.1z"/>
	<path class="st5" d="M62.6,219.1c-0.4,0-0.7,0-0.9,0s-0.5,0-0.8,0c-0.3-0.1-1.1-0.2-2.2-0.3s-2.5-0.8-4.1-1.9
		c-1.7-1.2-2.8-2.7-3.6-4.5c-0.8-1.8-1.2-3.5-1.2-5.2c0-2.5,0.8-4.8,2.2-6.8c1.5-2,3.5-3.4,6-4.3l1.4-0.3l5.3,19.4l0.6-0.2
		c2.9-1,4.6-2.5,5-4.3c0.4-1.8,0.6-3.1,0.6-3.8c0-1.7-0.4-3.2-1.3-4.6c-0.8-1.4-2.1-2.6-3.7-3.5l-0.6-0.3l1-2.9c1,0.4,2.4,1.4,4.4,3
		c2,1.6,2.9,4.3,2.9,8.4c0,3.5-1.1,6.3-3.3,8.7C68.4,217.9,65.7,219.1,62.6,219.1z M62.4,215.6l-4.3-16l-0.4,0.2l-0.4,0.2l-1,0.5
		c-1.2,0.8-2.1,1.7-2.8,2.9c-0.7,1.2-1,2.5-1,3.9c0,0.7,0.2,1.7,0.5,3c0.3,1.3,1.3,2.6,2.6,3.8c1.4,1.2,3.1,1.8,5,1.8
		c0.3,0,0.6,0,0.8,0S62,215.7,62.4,215.6z"/>
	<path class="st5" d="M73.4,191.1H50.3v-3.3h3.6l-0.7-0.6c-2.3-2.2-3.5-4.6-3.5-7.4c0-0.6,0.3-2.3,0.8-5.3c0.6-2.9,3.7-4.4,9.4-4.4
		h13.4v3.3h-13h-1.7c-1.8,0.2-3.3,0.9-4.4,2.3c-1.2,1.3-1.8,2.9-1.8,4.8c0,1.1,0.4,2.5,1.2,4.4c0.8,1.9,2.8,2.9,6.1,2.9h13.6
		L73.4,191.1L73.4,191.1z"/>
	<path class="st5" d="M66.8,165.1c-2,0-3.8-0.9-5.2-2.8c-1.4-1.8-2.2-4.3-2.2-7.2c0-1.2,0.2-2.5,0.5-4.1c0.3-1.5,1-2.9,2.1-4.1h-2.9
		c-2.2,0-3.8,0.8-4.8,2.3c-1,1.6-1.4,4.2-1.4,8c0,0.7,0.1,1.4,0.2,2.2c0.1,0.8,0.3,1.7,0.4,2.6h-2.8c-0.2-1.1-0.3-1.9-0.4-2.5
		c-0.1-0.6-0.1-1.3-0.1-1.9c0-4.9,0.7-8.5,2.1-10.7c1.4-2.2,3.7-3.3,6.8-3.3h14.3v3.3h-2.6c1,1,1.8,2.2,2.3,3.5
		c0.5,1.3,0.8,2.8,0.8,4.6c0,3.2-0.7,5.6-2,7.3C70.4,164.3,68.7,165.1,66.8,165.1z M66.6,161.7c1.3,0,2.4-0.7,3.3-1.9
		c0.9-1.3,1.3-3,1.3-5.3c0-1.9-0.3-3.5-1.1-4.8s-1.4-2-2.2-2.3c-0.8-0.3-1.3-0.4-1.7-0.4c-1.2,0-2.2,0.5-2.9,1.5
		c-0.8,1-1.3,2.1-1.3,3.2c-0.1,1.1-0.2,1.8-0.2,2.1c0,0.3-0.1,0.6-0.1,0.8c0,2.2,0.4,3.9,1.3,5.1C64.1,161,65.3,161.7,66.6,161.7z"
		/>
	<path class="st5" d="M73.4,124.9H40.1l27.1-17L40.1,91h33.3v4H51.8l22,12.9l-22.1,12.9h21.5L73.4,124.9L73.4,124.9z"/>
	<path class="st5" d="M62.6,86.4c-0.4,0-0.7,0-0.9,0s-0.5,0-0.8,0c-0.3-0.1-1.1-0.2-2.2-0.3s-2.5-0.8-4.1-1.9
		c-1.7-1.2-2.8-2.7-3.6-4.5c-0.8-1.8-1.2-3.5-1.2-5.2c0-2.5,0.8-4.8,2.2-6.8c1.5-2,3.5-3.4,6-4.3l1.4-0.3l5.3,19.4l0.6-0.2
		c2.9-1,4.6-2.5,5-4.3c0.4-1.8,0.6-3.1,0.6-3.8c0-1.7-0.4-3.2-1.3-4.6c-0.8-1.4-2.1-2.6-3.7-3.5l-0.6-0.3l1-2.9c1,0.4,2.4,1.4,4.4,3
		c2,1.6,2.9,4.3,2.9,8.4c0,3.5-1.1,6.3-3.3,8.7C68.4,85.2,65.7,86.4,62.6,86.4z M62.4,82.8l-4.3-16l-0.4,0.2l-0.4,0.2l-1,0.5
		c-1.2,0.8-2.1,1.7-2.8,2.9c-0.7,1.2-1,2.5-1,3.9c0,0.7,0.2,1.7,0.5,3c0.3,1.3,1.3,2.6,2.6,3.8c1.4,1.2,3.1,1.8,5,1.8
		c0.3,0,0.6,0,0.8,0S62,82.9,62.4,82.8z"/>
	<path class="st5" d="M61.7,59.5l-2-0.2c-2-0.3-3.8-1-5.3-2.3c-1.6-1.2-2.8-2.6-3.4-4.3c-0.7-1.7-1.1-3.3-1.1-5c0-0.4,0-0.8,0.1-1
		c0-0.3,0.3-1.3,0.6-3.2c0.3-1.9,1.8-3.5,4.3-4.8H41.4l-0.8-3.3h32.7v3.3h-4.7c1.6,0.8,2.8,2,3.8,3.6s1.4,3.4,1.4,5.4
		c0,0.8-0.2,2-0.4,3.5c-0.3,1.5-1.3,3.2-3,4.8S67,59,65.5,59.2c-1.5,0.3-2.6,0.4-3.2,0.4L61.7,59.5L61.7,59.5z M61.8,56.2
		c0.3,0,0.6,0,0.8,0c0.3,0,0.9-0.1,2.1-0.3c1.2-0.2,2.3-0.9,3.7-2.1c1.3-1.2,2.1-2.4,2.3-3.6c0.3-1.2,0.4-2.1,0.4-2.8
		c0-1.5-0.3-2.9-1.1-4.2c-0.8-1.3-1.8-2.3-3.2-3.2l-1.6-0.8c-1.2-0.4-2.3-0.6-3.5-0.6c-2.5,0-4.5,0.8-6.1,2.3
		c-1.6,1.5-2.4,2.8-2.6,3.8c-0.2,1-0.3,1.7-0.3,1.9c-0.1,0.3-0.1,0.6-0.1,0.8c0,2.1,0.8,3.9,2.2,5.6c1.4,1.6,3.3,2.6,5.5,2.9
		L61.8,56.2L61.8,56.2z"/>
	<path class="st5" d="M41.3,31.1v-5.9l4.9,2.9L41.3,31.1z M73.4,29.7H50.3v-3.3h23.1V29.7z"/>
	<path class="st5" d="M66.8,21.6c-2,0-3.8-0.9-5.2-2.8c-1.4-1.8-2.2-4.3-2.2-7.2c0-1.2,0.2-2.5,0.5-4.1c0.3-1.5,1-2.9,2.1-4.1h-2.9
		c-2.2,0-3.8,0.8-4.8,2.3s-1.4,4.2-1.4,8c0,0.7,0.1,1.4,0.2,2.2c0.1,0.8,0.3,1.7,0.4,2.6h-2.8c-0.2-1.1-0.3-1.9-0.4-2.5
		c-0.1-0.6-0.1-1.3-0.1-1.9c0-4.9,0.7-8.5,2.1-10.7c1.4-2.2,3.7-3.3,6.8-3.3h14.3v3.3h-2.6c1,1,1.8,2.2,2.3,3.5
		c0.5,1.3,0.8,2.8,0.8,4.6c0,3.2-0.7,5.6-2,7.3C70.4,20.8,68.7,21.6,66.8,21.6z M66.6,18.1c1.3,0,2.4-0.7,3.3-1.9
		c0.9-1.3,1.3-3,1.3-5.3c0-1.9-0.3-3.5-1.1-4.8s-1.4-2-2.2-2.3c-0.8-0.3-1.3-0.4-1.7-0.4c-1.2,0-2.2,0.5-2.9,1.5
		c-0.8,1-1.3,2.1-1.3,3.2s-0.2,1.8-0.2,2.1c0,0.3-0.1,0.6-0.1,0.8c0,2.2,0.4,3.9,1.3,5.1C64.1,17.5,65.3,18.1,66.6,18.1z"/>
</g>
<g>
	<path class="st5" d="M66.3,310.4c-3,8.9-5.8,18.6-6.4,28c-0.6,9.4,0.6,18.4,2.8,27.4c2,8.3,4.9,16.3,8.2,24.1l0.1-0.2
		c-2.7-8-4.9-16.1-6.4-24.3c-1.6-9-2-18.2-0.8-27.1c1.2-9,4-17.6,7.5-26c0.8-1.9,1.6-3.7,2.4-5.6l-4.2-4.2
		C68.3,305,67.2,307.6,66.3,310.4z"/>
</g>
<g>
	<path class="st5" d="M54.9,313c-2.1,9.1-3.7,20.7-3.3,30.1c0.4,9.5,2.4,18.7,5.6,27.5c2.9,8.1,6.6,15.9,10.7,23.4l0.1-0.2
		c-3.5-7.7-6.7-15.7-9-23.8c-2.5-8.8-3.8-17.9-3.6-26.9c0.3-9,1.6-18.3,4.2-27c2.7-8.8,4.6-13.3,6.5-17.1c0,0-5-2.9-5.4-2.1
		C58,302.6,56.2,307.4,54.9,313z"/>
</g>
<g>
	<g>
		<path class="st6" d="M66.1,299.1l-4.1-4.2c-6.4,0.9-12.5,2-18.3,3.3c-17.9,4-32.5,9.7-43.2,16.8c1.2,1.1,2.4,2.1,3.7,3.2
			C19.3,308.5,41.7,302.3,66.1,299.1z"/>
	</g>
	<g>
		<path class="st6" d="M73.7,306.7l-4.2-4.2c-31.1,3.9-55.2,13.4-68.8,24.2c1.2,1,2.5,2,3.8,3C18.2,319.2,42.4,310,73.7,306.7z"/>
	</g>
</g>
</svg>
