<?xml version="1.0" encoding="utf-8"?>
<!-- Generator: Adobe Illustrator 22.0.1, SVG Export Plug-In . SVG Version: 6.00 Build 0)  -->
<svg version="1.0" id="Laag_1" xmlns="http://www.w3.org/2000/svg" xmlns:xlink="http://www.w3.org/1999/xlink" x="0px" y="0px"
	 viewBox="0 0 276.6 136.4" style="enable-background:new 0 0 276.6 136.4;" xml:space="preserve">
<style type="text/css">
	.st0{clip-path:url(#SVGID_2_);fill:#1C2C6F;}
	.st1{clip-path:url(#SVGID_2_);fill:#005FAB;}
	.st2{clip-path:url(#SVGID_2_);fill:#272673;}
	.st3{clip-path:url(#SVGID_4_);}
	.st4{clip-path:url(#SVGID_6_);fill:#1C2C6F;}
	.st5{clip-path:url(#SVGID_6_);fill:#005FAB;}
	.st6{clip-path:url(#SVGID_8_);fill:#7F2476;}
	.st7{clip-path:url(#SVGID_8_);fill:#263269;}
	.st8{clip-path:url(#SVGID_8_);fill:#802376;}
	.st9{clip-path:url(#SVGID_8_);fill:#0760AB;}
</style>
<g>
	<defs>
		<rect id="SVGID_1_" x="-21.2" y="-20.2" width="389.1" height="210.5"/>
	</defs>
	<clipPath id="SVGID_2_">
		<use xlink:href="#SVGID_1_"  style="overflow:visible;"/>
	</clipPath>
</g>
<g>
	<defs>
		<rect id="SVGID_3_" x="-21.2" y="-20.2" width="389.1" height="210.5"/>
	</defs>
	<clipPath id="SVGID_4_">
		<use xlink:href="#SVGID_3_"  style="overflow:visible;"/>
	</clipPath>
</g>
<g>
	<defs>
		<rect id="SVGID_7_" x="-21.2" y="-20.2" width="389.1" height="210.5"/>
	</defs>
	<clipPath id="SVGID_6_">
		<use xlink:href="#SVGID_7_"  style="overflow:visible;"/>
	</clipPath>
	<path style="clip-path:url(#SVGID_6_);fill:#263269;" d="M28.3,25.5c0,1.8-1.5,3.3-3.3,3.3H3.3c-1.8,0-3.3-1.5-3.3-3.3V3.9
		c0-1.8,1.5-3.3,3.3-3.3h21.6c1.8,0,3.3,1.5,3.3,3.3V25.5z"/>
	<path style="clip-path:url(#SVGID_6_);fill:#802376;" d="M28.2,75.8c0,1.8-1.5,3.3-3.3,3.3H3.3c-1.8,0-3.3-1.5-3.3-3.3V54.2
		c0-1.8,1.5-3.3,3.3-3.3h21.6c1.9,0,3.3,1.5,3.3,3.3V75.8z"/>
	<path style="clip-path:url(#SVGID_6_);fill:#0760AB;" d="M28.3,126c0,1.8-1.5,3.3-3.3,3.3H3.3c-1.8,0-3.3-1.5-3.3-3.3v-21.6
		c0-1.8,1.5-3.3,3.3-3.3h21.6c1.8,0,3.3,1.5,3.3,3.3V126z"/>
	<path style="clip-path:url(#SVGID_6_);fill:#263269;" d="M44.9,17.4c0-7.8,3.9-11.7,11.6-11.7c7.6,0,11.4,3.9,11.4,11.7
		c0,7.8-3.8,11.6-11.4,11.6C48.8,29,44.9,25.1,44.9,17.4 M56.5,27.6c6.4,0,9.5-3.4,9.5-10.3c0-6.8-3.2-10.2-9.5-10.2
		c-6.5,0-9.7,3.4-9.7,10.2C46.8,24.1,50,27.6,56.5,27.6"/>
	<path style="clip-path:url(#SVGID_6_);fill:#263269;" d="M72.3,28.9V11.9h1.2l0.2,2.2c2.2-1.4,4.3-2.2,6.3-2.2
		c4.1,0,6.2,1.8,6.2,5.3v11.6h-1.7V17.2c0-2.5-1.5-3.8-4.6-3.8c-2,0-4,0.7-6,2.1v13.3H72.3z"/>
	<rect x="91.7" y="5.8" style="clip-path:url(#SVGID_6_);fill:#263269;" width="1.7" height="23"/>
	<path style="clip-path:url(#SVGID_6_);fill:#263269;" d="M101,7.8h-2V5.8h2V7.8z M100.9,28.9h-1.7V12h1.7V28.9z"/>
	<path style="clip-path:url(#SVGID_6_);fill:#263269;" d="M106.3,28.9V11.9h1.2l0.2,2.2c2.2-1.4,4.3-2.2,6.3-2.2
		c4.1,0,6.2,1.8,6.2,5.3v11.6h-1.7V17.2c0-2.5-1.5-3.8-4.6-3.8c-2,0-4,0.7-6,2.1v13.3H106.3z"/>
	<path style="clip-path:url(#SVGID_6_);fill:#263269;" d="M132.2,12c4.6,0,6.9,2.6,6.9,7.7c0,0.4,0,0.7,0,1.1h-12.8
		c0,4.4,2.3,6.6,7,6.6c1.9,0,3.6-0.3,5.1-0.8v1.5c-1.5,0.5-3.2,0.8-5.1,0.8c-5.8,0-8.7-2.9-8.7-8.7C124.6,14.7,127.2,12,132.2,12
		 M126.3,19.3h11.2c-0.1-3.9-1.8-5.9-5.3-5.9C128.5,13.4,126.5,15.3,126.3,19.3"/>
	<path style="clip-path:url(#SVGID_6_);fill:#263269;" d="M165.6,27.9c-1.8,0.7-4.1,1-6.9,1c-5.3,0-7.9-2.9-7.9-8.8
		c0-5.4,2.7-8.1,8-8.1c1.7,0,3.4,0.3,5.1,0.8V5.8h1.7V27.9z M163.9,14.3c-1.6-0.6-3.3-0.9-5.1-0.9c-4.2,0-6.2,2.2-6.2,6.6
		c0,4.9,2.1,7.4,6.2,7.4c1.8,0,3.5-0.2,5.1-0.6V14.3z"/>
	<path style="clip-path:url(#SVGID_6_);fill:#263269;" d="M172.9,7.8h-2V5.8h2V7.8z M172.8,28.9h-1.7V12h1.7V28.9z"/>
	<path style="clip-path:url(#SVGID_6_);fill:#263269;" d="M185.1,12c4.6,0,6.9,2.6,6.9,7.7c0,0.4,0,0.7,0,1.1h-12.8
		c0,4.4,2.3,6.6,7,6.6c1.9,0,3.6-0.3,5.1-0.8v1.5c-1.5,0.5-3.2,0.8-5.1,0.8c-5.8,0-8.7-2.9-8.7-8.7C177.5,14.7,180,12,185.1,12
		 M179.1,19.3h11.3c-0.1-3.9-1.8-5.9-5.3-5.9C181.3,13.4,179.3,15.3,179.1,19.3"/>
	<path style="clip-path:url(#SVGID_6_);fill:#263269;" d="M196.4,28.9V11.9h1.2l0.2,2.2c2.2-1.4,4.3-2.2,6.3-2.2
		c4.1,0,6.2,1.8,6.2,5.3v11.6h-1.7V17.2c0-2.5-1.5-3.8-4.6-3.8c-2,0-4,0.7-6,2.1v13.3H196.4z"/>
	<path style="clip-path:url(#SVGID_6_);fill:#263269;" d="M215.1,28.1v-1.6c1.9,0.6,3.7,1,5.5,1c3.6,0,5.3-1.1,5.3-3.4
		c0-1.8-1.3-2.7-3.9-2.7h-2.2c-3.5,0-5.3-1.5-5.3-4.5c0-3.2,2.3-4.8,7-4.8c1.8,0,3.6,0.3,5.5,0.8v1.6c-1.9-0.6-3.7-1-5.5-1
		c-3.6,0-5.3,1.1-5.3,3.4c0,1.9,1.2,2.9,3.6,2.9h2.2c3.8,0,5.6,1.4,5.6,4.4c0,3.2-2.3,4.8-7,4.8C218.9,28.9,217,28.6,215.1,28.1"/>
	<path style="clip-path:url(#SVGID_6_);fill:#263269;" d="M232,9.2h1.2l0.3,2.7h5.1v1.4h-4.9v10.7c0,2.2,0.8,3.3,2.4,3.3h2.5v1.5
		h-2.4c-2.8,0-4.1-1.5-4.1-4.6V9.2z"/>
	<path style="clip-path:url(#SVGID_6_);fill:#263269;" d="M249,12c4.6,0,6.9,2.6,6.9,7.7c0,0.4,0,0.7,0,1.1h-12.8
		c0,4.4,2.3,6.6,7,6.6c1.9,0,3.6-0.3,5.1-0.8v1.5c-1.5,0.5-3.2,0.8-5.1,0.8c-5.8,0-8.7-2.9-8.7-8.7C241.4,14.7,243.9,12,249,12
		 M243.1,19.3h11.2c-0.1-3.9-1.8-5.9-5.3-5.9C245.2,13.4,243.2,15.3,243.1,19.3"/>
	<path style="clip-path:url(#SVGID_6_);fill:#263269;" d="M260.3,28.9V11.9h1.2l0.2,2.2c2.2-1.4,4.3-2.2,6.3-2.2
		c4.1,0,6.2,1.8,6.2,5.3v11.6h-1.7V17.2c0-2.5-1.5-3.8-4.6-3.8c-2,0-4,0.7-6,2.1v13.3H260.3z"/>
	<polygon style="clip-path:url(#SVGID_6_);fill:#802376;" points="43.7,56.1 45.5,56.1 49.2,77.5 56.7,56.1 58.4,56.1 66,77.7 
		70.3,56.1 71.9,56.1 67.3,79.2 64.8,79.2 57.5,58.1 50.2,79.2 47.8,79.2 	"/>
	<path style="clip-path:url(#SVGID_6_);fill:#802376;" d="M82.7,62.3c4.6,0,6.9,2.6,6.9,7.7c0,0.4,0,0.7,0,1.1H76.7
		c0,4.4,2.3,6.6,7,6.6c1.9,0,3.6-0.3,5.1-0.8v1.5c-1.5,0.5-3.2,0.8-5.1,0.8c-5.8,0-8.7-2.9-8.7-8.7C75.1,65,77.6,62.3,82.7,62.3
		 M76.7,69.6H88c-0.1-3.9-1.8-5.9-5.3-5.9C78.9,63.7,76.9,65.6,76.7,69.6"/>
	<path style="clip-path:url(#SVGID_6_);fill:#802376;" d="M94,56.1h1.7v6.9c2-0.5,3.8-0.8,5.2-0.8c5.1,0,7.7,2.7,7.7,8.1
		c0,5.9-2.7,8.8-8.1,8.8c-2.4,0-4.6-0.2-6.5-0.7V56.1z M95.7,77.2c1.7,0.3,3.3,0.5,4.7,0.5c4.4,0,6.6-2.5,6.6-7.4
		c0-4.3-2-6.4-6.1-6.4c-1.5,0-3.3,0.3-5.2,0.9V77.2z"/>
	<path style="clip-path:url(#SVGID_6_);fill:#802376;" d="M112.6,78.4v-1.6c1.9,0.6,3.7,1,5.5,1c3.6,0,5.3-1.1,5.3-3.4
		c0-1.8-1.3-2.7-3.9-2.7h-2.2c-3.5,0-5.3-1.5-5.3-4.5c0-3.2,2.3-4.8,7-4.8c1.8,0,3.6,0.3,5.5,0.8v1.6c-1.9-0.6-3.7-1-5.5-1
		c-3.6,0-5.3,1.1-5.3,3.4c0,1.9,1.2,2.9,3.6,2.9h2.2c3.8,0,5.6,1.4,5.6,4.4c0,3.2-2.3,4.8-7,4.8C116.4,79.2,114.5,78.9,112.6,78.4"
		/>
	<path style="clip-path:url(#SVGID_6_);fill:#802376;" d="M131.7,58.1h-2v-1.9h2V58.1z M131.6,79.2h-1.7V62.2h1.7V79.2z"/>
	<path style="clip-path:url(#SVGID_6_);fill:#802376;" d="M137,59.5h1.2l0.3,2.7h5.1v1.4h-4.9v10.7c0,2.2,0.8,3.3,2.4,3.3h2.5v1.5
		h-2.4c-2.8,0-4.1-1.5-4.1-4.6V59.5z"/>
	<path style="clip-path:url(#SVGID_6_);fill:#802376;" d="M154,62.3c4.6,0,6.9,2.6,6.9,7.7c0,0.4,0,0.7,0,1.1H148
		c0,4.4,2.3,6.6,7,6.6c1.9,0,3.6-0.3,5.1-0.8v1.5c-1.5,0.5-3.2,0.8-5.1,0.8c-5.8,0-8.7-2.9-8.7-8.7C146.3,65,148.9,62.3,154,62.3
		 M148,69.6h11.3c-0.1-3.9-1.8-5.9-5.3-5.9C150.2,63.7,148.2,65.6,148,69.6"/>
	<path style="clip-path:url(#SVGID_6_);fill:#802376;" d="M164.9,78.4v-1.6c1.9,0.6,3.7,1,5.5,1c3.6,0,5.3-1.1,5.3-3.4
		c0-1.8-1.3-2.7-3.9-2.7h-2.2c-3.5,0-5.3-1.5-5.3-4.5c0-3.2,2.3-4.8,7-4.8c1.8,0,3.6,0.3,5.5,0.8v1.6c-1.9-0.6-3.7-1-5.5-1
		c-3.6,0-5.3,1.1-5.3,3.4c0,1.9,1.2,2.9,3.6,2.9h2.2c3.8,0,5.6,1.4,5.6,4.4c0,3.2-2.3,4.8-7,4.8C168.7,79.2,166.8,78.9,164.9,78.4"
		/>
	<path style="clip-path:url(#SVGID_6_);fill:#0760AB;" d="M45.6,128.6v-1.8c2.4,0.9,5.1,1.3,8,1.3c4.8,0,7.2-1.8,7.2-5.5
		c0-2.7-1.6-4-4.7-4h-4.7c-4.3,0-6.4-1.9-6.4-5.8c0-4.4,3.1-6.6,9.4-6.6c2.6,0,5.1,0.3,7.5,1v1.6c-2.4-0.8-4.9-1.1-7.5-1.1
		c-5.2,0-7.7,1.7-7.7,5.2c0,2.8,1.6,4.2,4.7,4.2h4.7c4.3,0,6.4,1.9,6.4,5.6c0,4.6-3,6.9-8.9,6.9C50.7,129.6,48,129.2,45.6,128.6"/>
	<path style="clip-path:url(#SVGID_6_);fill:#0760AB;" d="M64.8,112.5h1.9l6.3,15.3l6.2-15.3h1.9l-7.4,17.4c-1.2,3.1-3.1,5-5.6,5.8
		l-0.5-1.4c2-0.7,3.4-2.3,4.5-4.6L64.8,112.5z"/>
	<path style="clip-path:url(#SVGID_6_);fill:#0760AB;" d="M83.9,128.6V127c1.9,0.6,3.7,1,5.5,1c3.6,0,5.3-1.1,5.3-3.4
		c0-1.8-1.3-2.7-3.9-2.7h-2.2c-3.5,0-5.3-1.5-5.3-4.5c0-3.2,2.3-4.8,7-4.8c1.8,0,3.6,0.3,5.5,0.8v1.6c-1.9-0.6-3.7-1-5.5-1
		c-3.6,0-5.3,1.1-5.3,3.4c0,1.9,1.2,2.9,3.6,2.9h2.2c3.8,0,5.6,1.4,5.6,4.4c0,3.2-2.3,4.8-7,4.8C87.7,129.4,85.8,129.1,83.9,128.6"
		/>
	<path style="clip-path:url(#SVGID_6_);fill:#0760AB;" d="M100.8,109.7h1.2l0.3,2.7h5.1v1.4h-4.9v10.7c0,2.2,0.8,3.3,2.4,3.3h2.5
		v1.5h-2.4c-2.8,0-4.1-1.5-4.1-4.6V109.7z"/>
	<path style="clip-path:url(#SVGID_6_);fill:#0760AB;" d="M117.8,112.5c4.6,0,6.9,2.6,6.9,7.7c0,0.4,0,0.7,0,1.1h-12.8
		c0,4.4,2.3,6.6,7,6.6c1.9,0,3.6-0.3,5.1-0.8v1.5c-1.5,0.5-3.2,0.8-5.1,0.8c-5.8,0-8.7-2.9-8.7-8.7
		C110.2,115.2,112.7,112.5,117.8,112.5 M111.9,119.8h11.3c-0.1-3.9-1.8-5.9-5.3-5.9C114,113.9,112,115.9,111.9,119.8"/>
	<path style="clip-path:url(#SVGID_6_);fill:#0760AB;" d="M135.9,112.5c4.6,0,6.9,2.6,6.9,7.7c0,0.4,0,0.7,0,1.1H130
		c0,4.4,2.3,6.6,7,6.6c1.9,0,3.6-0.3,5.1-0.8v1.5c-1.5,0.5-3.2,0.8-5.1,0.8c-5.8,0-8.7-2.9-8.7-8.7
		C128.3,115.2,130.8,112.5,135.9,112.5 M130,119.8h11.3c-0.1-3.9-1.8-5.9-5.3-5.9C132.1,113.9,130.2,115.9,130,119.8"/>
	<path style="clip-path:url(#SVGID_6_);fill:#0760AB;" d="M147.2,129.4v-16.9h1.2l0.2,2.1c1.7-1.4,3.6-2.1,5.6-2.1
		c2.7,0,4.4,0.8,5.2,2.3c1.9-1.5,3.9-2.3,5.9-2.3c3.8,0,5.7,1.9,5.7,5.6v11.3h-1.7v-11.3c0-2.7-1.3-4.1-4-4.1
		c-2.1,0-3.9,0.7-5.3,2.2v13.2h-1.7v-11.6c0-2.6-1.4-3.8-4.1-3.8c-2,0-3.8,0.7-5.3,2.2v13.2H147.2z"/>
	<path style="clip-path:url(#SVGID_6_);fill:#0760AB;" d="M176.1,106.4h1.7v6.9c2-0.5,3.8-0.8,5.2-0.8c5.1,0,7.7,2.7,7.7,8.1
		c0,5.9-2.7,8.8-8.1,8.8c-2.4,0-4.6-0.2-6.5-0.7V106.4z M177.8,127.4c1.7,0.3,3.3,0.5,4.7,0.5c4.4,0,6.6-2.5,6.6-7.4
		c0-4.3-2-6.4-6.1-6.4c-1.5,0-3.3,0.3-5.2,0.9V127.4z"/>
	<path style="clip-path:url(#SVGID_6_);fill:#0760AB;" d="M201.9,112.5c4.6,0,6.9,2.6,6.9,7.7c0,0.4,0,0.7,0,1.1H196
		c0,4.4,2.3,6.6,7,6.6c1.9,0,3.6-0.3,5.1-0.8v1.5c-1.5,0.5-3.2,0.8-5.1,0.8c-5.8,0-8.7-2.9-8.7-8.7
		C194.3,115.2,196.8,112.5,201.9,112.5 M196,119.8h11.2c-0.1-3.9-1.8-5.9-5.3-5.9C198.2,113.9,196.2,115.9,196,119.8"/>
	<path style="clip-path:url(#SVGID_6_);fill:#0760AB;" d="M213.2,129.4v-23h1.7v8c2-1.2,4-1.8,6.1-1.8c4.1,0,6.2,2.1,6.2,6.3v10.6
		h-1.7v-11.3c0-2.7-1.5-4.1-4.6-4.1c-2,0-4,0.7-6,2.1v13.3H213.2z"/>
	<path style="clip-path:url(#SVGID_6_);fill:#0760AB;" d="M239.1,112.5c4.6,0,6.9,2.6,6.9,7.7c0,0.4,0,0.7,0,1.1h-12.8
		c0,4.4,2.3,6.6,7,6.6c1.9,0,3.6-0.3,5.1-0.8v1.5c-1.5,0.5-3.2,0.8-5.1,0.8c-5.8,0-8.7-2.9-8.7-8.7
		C231.5,115.2,234,112.5,239.1,112.5 M233.2,119.8h11.2c-0.1-3.9-1.8-5.9-5.3-5.9C235.4,113.9,233.4,115.9,233.2,119.8"/>
	<path style="clip-path:url(#SVGID_6_);fill:#0760AB;" d="M257.2,112.5c4.6,0,6.9,2.6,6.9,7.7c0,0.4,0,0.7,0,1.1h-12.8
		c0,4.4,2.3,6.6,7,6.6c1.9,0,3.6-0.3,5.1-0.8v1.5c-1.5,0.5-3.2,0.8-5.1,0.8c-5.8,0-8.7-2.9-8.7-8.7
		C249.6,115.2,252.1,112.5,257.2,112.5 M251.3,119.8h11.2c-0.1-3.9-1.8-5.9-5.3-5.9C253.5,113.9,251.5,115.9,251.3,119.8"/>
	<path style="clip-path:url(#SVGID_6_);fill:#0760AB;" d="M268.5,129.4v-16.9h1.2l0.2,2.8c1.7-1.9,3.6-2.8,5.7-2.8v1.4
		c-2,0-3.8,1-5.4,2.9v12.6H268.5z"/>
</g>
</svg>
