<?xml version="1.0" encoding="utf-8"?>
<!-- Generator: Adobe Illustrator 22.1.0, SVG Export Plug-In . SVG Version: 6.00 Build 0)  -->
<svg version="1.1" id="Laag_1" xmlns="http://www.w3.org/2000/svg" xmlns:xlink="http://www.w3.org/1999/xlink" x="0px" y="0px"
	 viewBox="0 0 595.3 595.3" style="enable-background:new 0 0 595.3 595.3;" xml:space="preserve">
<style type="text/css">
	.st0{fill-rule:evenodd;clip-rule:evenodd;fill:#FFFFFF;}
</style>
<g>
	<path class="st0" d="M100.7,33.3v182.4c38.7-45.2,96.2-73.8,160.4-73.8c116.7,0,211.3,94.6,211.3,211.3
		c0,116.7-94.6,211.3-211.3,211.3c-64.2,0-121.7-28.6-160.4-73.8v59.1H48.9V85.1h-46V33.3H100.7L100.7,33.3z M261.1,193.7
		c88,0,159.4,71.4,159.4,159.4c0,88-71.4,159.4-159.4,159.4c-88.1,0-159.4-71.4-159.4-159.4C101.7,265.1,173.1,193.7,261.1,193.7
		L261.1,193.7z"/>
	<path class="st0" d="M526,422.9c37.4,0,67.7,30.3,67.7,67.7c0,37.4-30.3,67.7-67.7,67.7c-37.4,0-67.7-30.3-67.7-67.7
		C458.3,453.2,488.6,422.9,526,422.9L526,422.9z"/>
</g>
</svg>
