<?xml version="1.0" encoding="utf-8"?>
<!-- Generator: Adobe Illustrator 23.0.1, SVG Export Plug-In . SVG Version: 6.00 Build 0)  -->
<svg version="1.1"
	 id="svg2" xmlns:cc="http://creativecommons.org/ns#" xmlns:dc="http://purl.org/dc/elements/1.1/" xmlns:inkscape="http://www.inkscape.org/namespaces/inkscape" xmlns:rdf="http://www.w3.org/1999/02/22-rdf-syntax-ns#" xmlns:sodipodi="http://sodipodi.sourceforge.net/DTD/sodipodi-0.dtd" xmlns:svg="http://www.w3.org/2000/svg"
	 xmlns="http://www.w3.org/2000/svg" xmlns:xlink="http://www.w3.org/1999/xlink" x="0px" y="0px" viewBox="0 0 512 512"
	 style="enable-background:new 0 0 512 512;" xml:space="preserve">
<style type="text/css">
	.st0{fill:#FFFFFF;}
</style>
<g id="g4305">
	<g id="g4345" transform="translate(28,-40.00001)">
		<g id="text2994">
			<path id="path17" class="st0" d="M0.3,57.3c-5.8,0-11.7,2.4-15.8,6.5s-6.5,10-6.5,15.8v89.3c0,5.8,2.4,11.7,6.5,15.8
				s10,6.5,15.8,6.5h22.3v11.2H0.3c-5.8,0-11.7,2.4-15.8,6.5c-4.1,4.1-6.5,10-6.5,15.8v89.3c0,5.8,2.4,11.7,6.5,15.8
				c4.1,4.1,10,6.5,15.8,6.5h22.3v11.2H0.3c-5.8,0-11.7,2.4-15.8,6.5c-4.1,4.1-6.5,10-6.5,15.8v89.3c0,5.8,2.4,11.7,6.5,15.8
				c4.1,4.1,10,6.5,15.8,6.5h255l-44.6-44.6H22.6V392c56.2,0.1,112.8,0.1,169.4,0.1c1.5-3.9,3.8-7.5,6.9-10.6h0l34.1-34.1H67.2
				v-11.2h177l44.8-44.8c-88.9-0.1-178.3,0.2-266.5,0.2v-44.6c106.2,0.3,213.9,0.1,320.3,0c0.5-0.1,1-0.1,1.6-0.1
				c1.3-0.1,2.5,0,3.8,0.1c10.4,0,20.9,0,31.3,0v44.6c-0.9,0-1.9,0-2.8,0v18.2h47.4v-85.1c0-5.8-2.4-11.7-6.5-15.8
				c-4.1-4.1-10-6.5-15.8-6.5h-22.3v-11.2h22.3c5.8,0,11.7-2.4,15.8-6.5s6.5-10,6.5-15.8V79.6c0-5.8-2.4-11.7-6.5-15.8
				s-10-6.5-15.8-6.5H0.3z M22.6,101.9h357v44.6c-118.4-0.5-238.8,0-357,0V101.9z M67.2,191.2H335v11.2H67.2V191.2z"/>
			<path id="path2991-1" class="st0" d="M480,465.9c0,2.2-0.9,4.4-2.5,5.9c-1.5,1.5-3.7,2.5-5.9,2.5H354.5v54.4
				c0,3.3-2.1,6.5-5.2,7.7c-3,1.3-6.8,0.5-9.1-1.8L214.7,409.1c-1.5-1.5-2.4-3.7-2.4-5.9s0.9-4.4,2.4-5.9l125.5-125.5
				c2.3-2.3,6.1-3.1,9.1-1.8c3,1.3,5.2,4.4,5.2,7.7V332h117.1c2.2,0,4.4,0.9,5.9,2.5c1.5,1.5,2.5,3.7,2.5,5.9V465.9z"/>
		</g>
	</g>
</g>
</svg>
