<?xml version="1.0" encoding="utf-8"?>
<!-- Generator: Adobe Illustrator 22.1.0, SVG Export Plug-In . SVG Version: 6.00 Build 0)  -->
<svg version="1.1" id="Laag_1" xmlns="http://www.w3.org/2000/svg" xmlns:xlink="http://www.w3.org/1999/xlink" x="0px" y="0px"
	 viewBox="0 0 841.9 595.3" style="enable-background:new 0 0 841.9 595.3;" xml:space="preserve">
<style type="text/css">
	.st0{fill-rule:evenodd;clip-rule:evenodd;fill:#FFFFFF;}
	.st1{fill-rule:evenodd;clip-rule:evenodd;fill:#EF7D00;}
	.st2{fill-rule:evenodd;clip-rule:evenodd;fill:#316AB2;}
</style>
<path class="st0" d="M643,562.2c9.5-1.4,19.5-1.2,27-8.1c31.9,4.9,64.3-3,89.4-20.6c13.2-10.7,25.1-23,34.8-36.6
	c8.5-11.9,15.2-23,19.5-36.3c3.2-8.2,5.8-16.8,7.7-25.6c9.1-41.4,4.3-87.8-9.2-127.2c-2.5-7.3-5.3-14.4-8.4-21.2
	c-16.8-34.8-39.8-72.3-75-94.4c-19.9-12.4-38.2-31.6-49.4-51.4c-6.1-5.5-11.9-12.8-19.9-14.1c2.2,3.6,4.5,7,5.1,11.2l-0.5,0.6
	c-8.4,0.2-14.9-4.2-20.7-9.5l6.3-5.7c-2.4-1.2-5.1-1.7-7.8-2.3c-24.1-2.7-44,8.4-65.4,13.8l-0.3,1.2c13.1,5.9,15.9,20.3,23.5,30.1
	c1.9-2.3,5.1-0.6,7.8-0.8c3.8,0.2,7.4,3,11.1,2c0.1-3.2-1.7-5.7-2.3-8.6c2.3-1.1,5-0.1,7.5,0c6.9,4.1,18-0.7,22.4,8.6
	c-7.9,0.5-15.3,2.2-22.7,4c0.5,3,3.5,5.4,3.2,8.4c-6.3-2.6-13-4.3-20.1-5.1l-0.4,1.1c9,10.5,21.3,16.7,33.8,20.4
	c18.1,4.2,34-4.4,51.4-1.4c42.8,19.6,79.4,64.5,95.3,107c0.8,2,1.5,4.1,2.2,6.2c13.3,38.9,15.8,86.6,2.5,127.2
	c-7.1,16.9-14.9,32.8-27.5,46.5c-4.7,5.8-10,11-15.7,15.4c-18,14-40.1,20.1-62.9,13.9c-1.4-1-4.3-1.2-3.8-3.7
	c0.8-3.3,1.5-6.7,2.2-10.2c3.8-19.4,5.5-39.9,4.5-60.3c0-0.9,0-1.7-0.1-2.6c-1.3-29.7-7.2-56.4-18.1-82c-7-14.7-15.3-30.8-25.8-45.2
	c-12.5-17.2-28-32-47.9-39.4c-12.2-3.2-27.3-3.8-36.5,6.3c-6.6,5.8-9.3,13.5-8.4,22c-10.3,6.5-21.8,10-34.4,11.1
	c-3.1,0.3-6.2,1.4-9.5,1.4c-3,0.1-6,0-8.9-0.3c-15.1-1.9-30.4-10-42.1-19.4c-0.2-6.2-0.6-12.1-0.8-18.7c-6.7-3.5-12.2-10-12.7-17.8
	l0.6-0.6c3.8,1.2,7.2,3.1,10.6,5.1c-1.6-9.3-3.4-18.5-8-26.7c-4.3-1.8-8.6-3.2-12.7-5.4c-4.7-3.1-7.7-8.7-8.4-13.9
	c4.2,4.1,11.5,2.6,14.7,6.9c-5.6-16.6-5.7-35.6-14.9-50.8c-4.7-11.2-16.9-16.4-25.2-24.6c-3.2-4-4.5-9.5-10.4-10.1
	c-4.8-1.2-5.2-6.6-6-10c3,0.4,5.5,2.4,8,2.9c-6.9-18.4-13-38.9-31.8-50.6l-3.2,2c-7.3,1.1-15.1,1.6-22.4,1.8c3.2-4.8,9-6.8,13.5-9
	c-5.3-3.9-9.6-4.9-16.2-6c-3.8,3.8-10.7,5.7-15.6,6.8l-0.6-0.5c-0.1-4.3-1.1-9.5,5.4-10.6c-6.2-3-16.5-1.8-22.9,0
	c-1.8,4.7-6.9,8.8-6.5,14.4c-3.7,3.8-6.3,9-10.2,11.7c-0.1-9.2,3.8-17.7,5.5-25.5c-5.4,2-10.8,4.9-16.1,7.4
	c-8.5-4.9-17.4-9.8-26.5-13.5c-0.8-0.4-2.6-0.7-2.3,0.8c7.8,5.6,4.8,16.1,5.6,24.1l-4.9-4.1c-2.4-6.1-9.3-10.5-10.5-17.2
	c-8.1,1.6-13.3,3.7-20.9,6.9l-1,0.6c5.6,0,10.4,4.4,13.1,8.8c-8.5,0.5-16-2.9-24.4-3.7c-0.8-0.8-1.5-1.8-2.9-1.7
	c-4.2,1.6-7.8,4.5-11.5,7.4c-8.2,8.1-16.6,17.1-20.6,27.9c2.8,0.5,6.2,0.3,8.2,2c-4.5,2.7-8.5,7.4-12.9,10
	c-1.6,6.2-1.3,13.3-1.7,20.1c-3.5,5.3-8.1,9.9-10.4,15.8c-7.4,24-9.3,50.7-8.2,77.9c-2.4,2.3-5.5,3.7-7.8,5.5l0.2,24.4h0.6
	c1.1-5.1,7.2-8,10.9-11.5h1.2c-0.6,5.5-1.3,11-1.4,16.6L136,270c-6.9,6.1-1.1,15.3-1.7,23c0.5,2,0.8,5,2.3,5.5
	c0.9-3,3.5-5.1,5.2-7.8c3-0.7,5.6-3.1,8.4-3.5c-1.6,6-3.6,11.8-6,17.6c-1.1,0.7-2.5,1.8-3.6,3c-1.2,1.3-2.2,2.8-2.5,4.4
	c5.4,28.3,13.9,56.3,23.5,83c-6.6,11.1-10.3,24.2-15.8,35.7c-0.8,1.6-1.5,3.3-2.1,4.9c-5.5,13.9-7.2,29.5-14,42.8
	c-2.8-1.9-5.8-3.4-8.8-4.7c-12.9-4.3-27.9-1.5-37.3,8.4c-8.4-1.5-17-0.1-23.6,4.3c-4.7,3.5-8.4,7.8-10.5,12.8
	c-1.4,3.5-2.1,7.3-1.9,11.4c-5.4,3.7-8.2,9.4-10,15.2c-2.5,12.9,2,26.3,9.4,36.3H643L643,562.2z"/>
<path class="st0" d="M563.9,293.4c-0.1,3.1-2.4,6.6-0.4,9.2c2.9-3.2,7.7-3.1,11.5-4.5c10.6-1,20.8,2.4,30.7,4.8
	c-2.5-4-4.2-8.4-6.9-12c-5.5-1.4-13.9,2.4-14.8-5.7c-3.4-2.9-8.6-0.8-12.1-0.6C568.5,287,565.8,289.9,563.9,293.4L563.9,293.4z"/>
<path class="st0" d="M198.5,190.2c-0.1-0.1-0.1-0.1-0.2-0.1c0,0,0,0.1,0,0.1H198.5L198.5,190.2z"/>
<path class="st0" d="M242,296.5l7.2-6.9c0.6,0,1.1,0.1,1.4,0.6l-0.6,13.3c3.5,3.2,7.8,4.3,12.3,4.5c0.4-3.6,3.1-6.1,4.7-9.2
	c1.3-2.5,0.5-6.2,3.1-8l0.8,0.8c0.9,3.9,0.6,8.4,2.7,11.8c0.2,1.9,0.6,4.3,0.8,6c5.3,0.2,10-1.2,14.1-3.1c-0.2-4.5,1.3-8.3,2-12.4
	c1.1-1.4-1.3-4.1,1.7-3.9c1.7,3.6,4.7,7.3,6.3,11.1c6.9-7,9.8-16.3,11.5-25.8c-2-2.8-5.1-2.8-7.5-4.5c-20.3-6.6-46.4-7.9-66,2.3
	C235.1,281,236.8,290,242,296.5L242,296.5z"/>
<path class="st0" d="M52,520.8c-0.7,9.2,0,17.9,0.6,27c1.9,3,5.4,6.5,8.8,6.7l0.6-6.1c1.4-8.5-3.1-17.5,1.7-24.7
	c3.3,1.1,6.7,2.7,9.6,4.3c1.4-7.9-0.6-17.1-8.1-21.9L52,520.8L52,520.8z"/>
<path class="st0" d="M81.5,507.9c-4.7,14-8.1,31.3-2.5,45.9c3.2-2.1,6.6-4.2,9.4-7.2c-0.6-11.3-2.1-23.3,4.5-32.6
	c5.9,1.8,9.8,7.4,12.1,12.9c4-5,5.3-12,3.7-18.7c0.2-5.2-5.8-4.1-8.6-6.2c1-4.4,0.8-9.5,5.5-12.1l-14.4,1.4
	C87.6,496.8,83.5,501.9,81.5,507.9L81.5,507.9z"/>
<path class="st0" d="M111,549.2c0.6,1.1,0,3,1.2,3.2c1.8-10,9.9-16.5,14.4-25.4c2.1-3,2-7.2,5.5-9.5c4.7,0,8,3.4,12.6,3.7
	c1.4,1.1-0.7,2-0.9,3.2c-0.9,8.1-4.1,14.9-3.4,23.3h0.8c6.3-6.7,10.6-13.9,15.3-21.6l0.8-6.8c1.1-8.1-7.8-13.4-13.5-16.7l5.1-6.6
	l-7.2-2.5c-8.4,0.9-15.9,4.3-21.8,10.9C112.7,517.8,111.5,532.9,111,549.2L111,549.2z"/>
<path class="st0" d="M143.2,478.2c2.7,0.8,5.2-1.4,8-0.2c11,4.1,22.5,8.2,30.7,17.4l9.8,25l4.9-15.4l-3.2-8.4
	c-2.7-6-10.3-5.5-15.4-5.7c-2.1-2.4,0.1-5.2,0.9-7.4c2.5-8.5-7.9-8-12.1-11.5c0.2-5.2-6-3.4-9.5-3.8l-1.2-1.4
	c-0.7-1.1-2.5-1.1-3.5-0.2c-0.2-0.3-0.7-0.6-0.5-1.2l-2.7,0.6C145.8,469.2,143.3,473.4,143.2,478.2L143.2,478.2z"/>
<path class="st0" d="M150.1,450.8c0.4,1.6,1.3,3.1,2.5,4.1c5.4-1.4,10.5-5.1,16.7-2.9c8,7,16.4,14.5,26.1,18.3l3.4-0.6
	c2.2,0.7,4.5,0.8,6,3.2c1.3,3.2-2,5.2-3.1,7.8c5.4,3.9,3.2,11,6.6,15.8l8.6-11.5c-2-5,0.1-13.6-7.8-14.1c-2.6-1.3-4.4-4-4.3-6.9
	c-5.1-4.7-11.5-6.7-16.6-11.5c-4.2-3.4-6.7-8.5-12.1-9.7c-3.7-2-7.7-3.1-12.1-4.1C156.1,437.5,155.4,447,150.1,450.8L150.1,450.8z"
	/>
<path class="st0" d="M161.6,427.2l1.4,2.3c6-0.4,11.4-3,17.2-2.9c3.9,2.4,9.1,2.3,13.1,4.3c3.2,4.4,6.7,9.4,11.5,12.4
	c9.7,1.4,15.1,11.8,18.4,19.5v-3.7c1.4-5.1-0.1-11.1-2-15.8c-2.4-2.4-5.9-4-8.4-6.1c-0.5-1.5-0.1-2.3,0.4-3.7
	c-3.7-3.9-9.2-6.1-13.7-9.2c-6.3-9.2-18.5-6.7-28.2-9.2L161.6,427.2L161.6,427.2z"/>
<path class="st0" d="M161.4,339.5c1.1,3.7,2.4,8.4,3.1,12.3c3.3-7.4,10-10.7,15.8-16.8c-3.4-2.3-7.5-3.4-11.2-4.1v-0.2
	C166.4,333.3,162.3,335.9,161.4,339.5L161.4,339.5z"/>
<path class="st0" d="M183.1,378.8l5.4-5.5c5.4-5.5,9.8-11.8,10.6-18.9c-3.8-2.3-8.8-0.7-12.5,0.6
	C185.2,362.8,183.2,370.5,183.1,378.8L183.1,378.8z"/>
<path class="st0" d="M187,395.7c8.3,0.5,16.3,2.1,23-2.5l6.7-21.5c-2.1-0.1-4.3-1.1-6.3-0.4C205.9,381.1,197.1,390.8,187,395.7
	L187,395.7z"/>
<path class="st0" d="M189.5,319.4c5.4,7.9,14.3,16.7,23.6,19.2c-1.1-10-9.7-17-14.1-25.6l-0.2-2.9c-3.5-3.4-7.7-5.6-11.2-7.4
	C186.8,308.5,188.4,314,189.5,319.4L189.5,319.4z"/>
<path class="st0" d="M218.6,396.6c6.3,1.1,13.1,0,19-1.8c8.5-2,13.2-11.3,16-18.6H243l-11.5,11.2C227,389.8,222.7,393.4,218.6,396.6
	L218.6,396.6z"/>
<path class="st0" d="M217.3,308.5c1.8,9.3,5.7,17.8,11.1,25.8l1.4-17.8L217.3,308.5L217.3,308.5z"/>
<path class="st0" d="M256.5,355c0.7-6-1.8-12.9-2.5-19c-3.6-2.4-8.6-2.2-12.3-4.5C242,340.9,249.4,348.9,256.5,355L256.5,355z"/>
<path class="st0" d="M245.6,415.8c7.5-2.4,14.8-5,21.7-8.9c4.4-6.3,11.1-12.1,12.1-19.5c-5.5,1.6-10.3-0.2-15.4,2.3
	c-3.1,5.6-5,12-11,16C252.1,409.8,247.7,412.6,245.6,415.8L245.6,415.8z"/>
<path class="st0" d="M257.3,430.5l9,11.7c4.8,1.6,10.8,1.1,14.9-1.7l-3.2-10.6C271.7,432.3,264.2,431.6,257.3,430.5L257.3,430.5z"/>
<path class="st0" d="M272.3,345.8l3.5,15.8c8.4-6.8,10.1-16.7,9.8-27.3C280.8,339.9,278,343.2,272.3,345.8L272.3,345.8z"/>
<path class="st0" d="M295.8,373.7c0.1,2.3,0.7,4.4,2,6.2c9.3,3.3,10.3,14.7,18.9,19c5.6,2.5,12.1-0.6,17-2.9
	c-3.7-4.2-7.9-7.1-11.5-11.5c-2.5-1.1-5-2.6-4.9-5.7L295.8,373.7L295.8,373.7z"/>
<path class="st0" d="M303.2,430.1c4.1,4.7,9.6,7,15.3,8.4c-0.9-1.3,0.6,0,0.8-0.8l-7.2-15.8c-3.6,0.1-7.3,0.8-10.6,0.6
	C301.8,425.1,302.4,427.7,303.2,430.1L303.2,430.1z"/>
<path class="st0" d="M315.9,356.5c-3.4-7.8-4.8-17.2-5.7-25.8c-3.6,4.3-7.3,7.1-10.6,11.5C298,351,310.6,353.1,315.9,356.5
	L315.9,356.5z"/>
<path class="st0" d="M330.5,348.4c4.3,5.6,13.8,3.7,19,2c-2.5-4.3-10.6-6.8-12.1-11.5c-0.9-8.2-2.5-16.3-5.2-23.8
	C328.1,325.3,323.1,337.4,330.5,348.4L330.5,348.4z"/>
<path class="st0" d="M338,373.7c12,8.7,23.7,18.9,40.4,15.2c1.2-0.8,3.2-0.7,3.5-2.3c-4.9-3.1-10.2-5.5-15.2-8.4l-5.7-8.4h-2.6
	C351.9,372,345,372.9,338,373.7L338,373.7z"/>
<path class="st0" d="M338.3,470.6h0.8c7.2-5.7,15.7-7.6,24.2-10.1c2.3,0.8,0.8,3.3,2.9,4.3c5.2-2.2,11.4-1.7,16.6-3.5
	c6.3,0.2,11.5,0.4,16.6,3.1c4.1,5.4,11.7,4.8,17,8.4l-0.9-8.4c-11.1-13.1-28.5-14-44.5-13.8l-0.4-1.7c-3.8,0-8.1,0.9-11.7,2.5
	c-5.1,0.2-10,2.7-14.9,4.3C341.8,460.5,340,466,338.3,470.6L338.3,470.6z"/>
<path class="st0" d="M347.9,323.7c4.7,6.1,11.6,10.8,19.5,9.2c-4.1-3.9-8.7-8.1-9-13.8c1.2-10.6-10.5-11.5-16.3-17
	C344,309.4,343.8,317.4,347.9,323.7L347.9,323.7z"/>
<path class="st0" d="M346.7,491.8h1.4c6.3-4,15.6-1,21.8-5.2c3.5-1.8,3.7,3,6.1,4.3c5.9,3.6,6.6,14.3,14.8,11.8
	c9.9,5.1,7.4,17.2,7.8,26.1l9.2-5.7c-0.8-4.7,1.8-10.3-1.2-14.4c-2.3-5.1-8.5-5.6-11.5-9.8c3.6-6.1-4.5-9-6.2-13.4l0.5-0.6l12.7,1.7
	c4.3,2.6,5.9,7.4,7.2,11.8c9.9,1.7,12.3,12.9,15.8,20.1c2-4.9,2.9-10.2,4.9-14.9c0.1-4-5.1-4-7.8-5.7c-0.7-6.1-3.5-11.9-8.8-15.5
	c-11-2.7-20.7-8.9-32.8-8.9l-10.1,3.1c-5.5,1.3-11.4-0.4-15.5,3.5C348.7,480.6,348.2,487.4,346.7,491.8L346.7,491.8z"/>
<path class="st0" d="M353,442.6l2.3,1.1c4.9-2.3,9.8-4.9,14.9-6.8c8-2.3,14.2,6.8,20.9,1.1c2.5-1.8,4.6,0.8,6.6,2.3
	c2.9,5.3,9.6,4.9,14.6,6.3c-2.5-6.8-5.6-16.1-14.3-17.2c-3.5-1.5-7.5-1.4-10.9-3.5c-9.2-10.2-15.2,8.4-25.2,3.8
	C358.3,433.6,353.8,437.3,353,442.6L353,442.6z"/>
<path class="st0" d="M355.3,500.8c3.8,3.2,7.8,8.7,13.7,8c7.4,3.5,4.3,13.3,8.4,18.4l4.3-3.8l-0.4-0.2l0.6-0.6l0.2,0.4
	c1.2-3.6-0.5-9.9-2.5-14.1c-2.7-1.9-6,0.1-8.6-1.7c-0.4-3.8-2.8-5.7-5.5-8.1c-1.9-1.4-4.4,0.5-6.6,0.4L355.3,500.8L355.3,500.8z"/>
<path class="st0" d="M370.2,355c3.9,6.6,11.6,10.6,17.7,15.2c5,2.3,11.6,2.9,17,1.7c-5.1-4.2-9.8-9-14.1-14c-1.7-2.4-2-5.4-4.3-7.5
	C380.8,351.5,374.5,351.3,370.2,355L370.2,355z"/>
<path class="st0" d="M376.8,312.3c5.5,6.8,14,4.1,21.8,4.3v-0.8l-12-10.1C383.3,306.8,379.7,309.7,376.8,312.3L376.8,312.3z"/>
<path class="st0" d="M156.7,199.5l6.9,21.5c-0.1-12.2,5.5-22.3,4.3-34.8l5.2-7.7l-10.9,3.4C159.3,187.4,157,192.9,156.7,199.5
	L156.7,199.5z"/>
<path class="st0" d="M161.4,162.2l9.4-5.5v-14c-3.9,2.4-6.1,6.5-9.2,9.7L161.4,162.2L161.4,162.2z"/>
<path class="st0" d="M355.3,184c-2.3,3-5.7,3.7-8.6,4.3c5-9.2,7.4-22,3.5-32.4c2.6-0.9,5.5-1.4,8-2.9l-0.2-0.2l6.6-5.8
	c8.7-6,5.4-17.3,8.6-25.8c-4.3-6.7-5.6-14.8-11.8-20.5l0.4-0.2c-4.9-6.2-13.8-5.5-20.5-8.6c-8.8-3-15.7,3.1-22,7.2
	c-2.7,0.5-1.1,4.1-4.1,3.9c-1.7,4.4-3.7,9.2-4.9,14.1c-11.8-1.7-24.6-0.3-34.1,6.3c-5-3.7-11.1-4.4-17-6.1
	c-4.3-0.8-9.2,0.7-12.3-1.7c-4.5-5.1-5.5-14.5-13.3-15.8c-2.7-1-3.3-3.9-3.3-6.6c-5.1-0.8-9.7-3.2-14.7-4.3
	c-7.6-3.5-13.7,2-19.5,5.7c-2.5,1.1-5.4,1.4-7.8,2.9c-4.3,6.7-8.4,13.5-11.1,20.9c0.8,6.1,3.5,11.5,6.6,16.6
	c2.7,7.8,11.3,13.9,18.6,17c-3.5,11.8-3.5,25.9,0,37.9c0,0-0.2,0.1-0.2,0.1c0,0-0.4,0.3-0.4,0.3c-1.1,0-2.4,0.2-3.3-0.3h-0.1
	c1.7,11.4,7,21.4,15.7,30c3.1,1.1,2.4,4.8,3.7,7.2c0.8,1.1,0.9,3.3,0.6,4.3c-18.6-0.6-35.3,4.1-50.2,12.5c-3.8,1.9-2.1,7.2-2.5,10.9
	c10.5-6.9,21.9-12.1,34.4-14.3c5.4-0.4,11.5-1.7,16.6-0.2l0.6,10.3c-14.2,7.4-29.8,11.7-42,23.9c0.2,3.7-0.5,8,0.6,11.1l10.9-8.9
	c10.5-8,21.5-14.8,33.6-19.2c3.2,3.8,6.6,7.9,10.9,10.3c7.3-4.7,15.2-8.1,23.5-10.3c4.4-2.6,11.5-0.2,14.3-5.5l2-10.9
	c-0.4-0.2-0.6-0.7-1.2-0.6c-5.6-3.2-9.3-8.8-8.8-15.4c-1.9,0.9-4.1,1.6-6.3,1.7c-1.9-0.5-3.7-0.9-4.5-2.9c-0.1-2.4-1.3-6,1.1-7.8
	c7.8-4.8,17.8-5,27.6-4.3c7.3,0.9,17.8,0.6,20.3,9.2c-0.3,2.5-0.1,5.2-2.6,6.9c-2.6,1.4-5.6-0.1-8-1.2c-1.9,5.9-5.1,12.4-11.7,14.3
	l0.9,6.9c0.8,3.1,1.1,8.2,6,7.2c11.4,2.7,21.4,8.6,31.3,14.9c3.3-3.4,6-7.2,8.4-10.6c17.7,6,33,19.2,47.6,31.6l0.6-10
	c-13.9-12.3-29.3-21-45.3-27.9c0.6-3.2,1.3-6.3,1.4-9.8c19,1.1,37.1,6.9,52.7,16.1l-0.2-8.6c-16.5-8.8-34.5-14.7-54.3-14.9
	c-0.7-1.1-0.9-2.6-0.8-3.7c9.6-1.6,16.4-11.5,18.7-20.1c4.9-5.6,12-11.7,10.3-20.1c0.2-0.7,0.5-1.4,0.7-2.1
	C355.5,188.1,356,185.9,355.3,184L355.3,184z"/>
<path class="st0" d="M371.9,214.7l9.8-3.1l1.1-5.5c2.8-8-3.1-14-6-20.3L371.9,214.7L371.9,214.7z"/>
<path class="st0" d="M396.6,252.6c4.7,5.1,9.2,13.4,17.5,10.9c-0.6-3.4-2.5-6.3-3.7-9.4c-2.2-2.5-2.9-9.7-7.2-7.2
	c-3.2-2.2-4.1-5.8-6.1-8.6C396.2,242.7,396.8,248.2,396.6,252.6L396.6,252.6z"/>
<path class="st0" d="M398.3,287.6c1.8,2.5,2.3,5.8,4.1,8c3.2,2.1,8,1.8,12,1.4c3.6-0.8,5.9,3.1,9.2,0.8c-4.2-2.6-6.7-7.4-10.6-10.9
	C408.2,283.3,403.2,286.5,398.3,287.6L398.3,287.6z"/>
<path class="st0" d="M404.7,343.2c8.2,4.9,18.7,9.7,29.7,8c1.2-0.6,3.2-0.5,3.5-1.9c-6.8-2.4-13.9-9.2-21.1-10.6
	c-4-6.1-9.1,1.6-14.1,1.1C402.7,341.2,404.2,342.3,404.7,343.2L404.7,343.2z"/>
<path class="st0" d="M429.5,448.8l1.8,3.8c1.8,12.4,9.7,23.9,5.4,37.5c3.6,2.5,4.7,6.7,6.9,10h0.6c2.8-10.4,0.9-21.2-0.6-31.6
	C444.7,459.2,435.1,453.7,429.5,448.8L429.5,448.8z"/>
<path class="st0" d="M431.6,326.3c6.2,4.8,16.1,5.3,23.3,2.9c-4.5-2.5-9.6-5.2-13.3-8.6L431.6,326.3L431.6,326.3z"/>
<path class="st0" d="M461.1,363.1c-0.6,5,2.7,9.2,6.3,11.7c1.3-3,3.5-5.5,3.7-8.8c-1.1-5.1-3.9-9.8-8.6-13.3
	C461.6,356,460.7,359.2,461.1,363.1L461.1,363.1z"/>
<path class="st0" d="M461.4,417.6c-0.8,5.6,5.4,6.3,8,9.5c2.2,2.6-1.4,4.4-1.4,6.9c4.5,5.9,7.2,12.6,7.2,20.3
	c1.8-7.3,4.5-14.2,5.5-21.8c-0.5-5.3-8.8-4.2-7.5-10c2.4-6-0.5-11.8-2-17.2c-0.5-0.9-1.6-2.5-2.5-2
	C466.4,408.1,461.1,411.6,461.4,417.6L461.4,417.6z"/>
<path class="st0" d="M477.8,389.1l6.2,12.1c2.7-0.3,4.5-3,6.7-4.9c1.7-5-2.7-8.3-4.1-12.3c-1.1-2.9,0-6.7-2-9.2
	c-1.6-1-3.4-2.5-5.1-2L477.8,389.1L477.8,389.1z"/>
<path class="st0" d="M485.8,357.3c4.9,3,10.5,7.3,13.1,12.5c4.2,12.2,10.9,23.2,15.8,35c1.8,8.2,3.2,15.6,5.5,23.7
	c0.9,2.1,0.4,6.3,3.7,6c1-9.1,2.7-17.8,2.9-27.3c-3-3.9-6.9-5.6-10.6-8v-0.8c0.5-2,2.2-4.4,4.7-4.1c1.1-1.2,4.3-2.4,2.9-4.5
	c-6.2-6.2-5.9-16.9-15.8-18.9c-3.5-1.4-4.3-5-4.6-8.4C498.6,358.8,491.7,357.4,485.8,357.3L485.8,357.3z"/>
<path class="st0" d="M491.5,422.1c6.1,5.6,4,13.7,3.5,21.3c-0.9,4.5,4.8,1.9,6.6,4.3c3.7,5.5,1.6,13.5,0.2,19.5
	c3.2-4.9,6.9-9.2,9.5-14.6c-0.1-2,2.5-3,2.4-5.5c1.1-3.5-3-1.9-4.7-2.3c-1.4-0.4-3-1.3-2.5-3.2c3.1-6,0.2-13.2-1-19.1
	c-1.4-4.9,0.6-11.5-1.7-15.8C500,411.9,488.7,413.1,491.5,422.1L491.5,422.1z"/>
<path class="st0" d="M502.7,337.2c10.6,10.8,18.4,21.6,29.9,32c0.2-4.6-0.4-9-0.6-13.5c-1.7-3.2-4.8-5.6-7.4-8
	C516.1,346.9,511.6,335.4,502.7,337.2L502.7,337.2z"/>
<path class="st0" d="M530.5,394.2c0.2,1.1,0.7,2,1.2,3.1c4.7,7.7,9.1,15.5,12.3,23.8c-1-8.8,5-19.8-2.9-26.7
	c-1.1-2.9-4.7-1.9-6.9-1.7L530.5,394.2L530.5,394.2z"/>
<path class="st0" d="M559.2,481.5c3.4,1.5,7.7-1.2,10.9-3.1c3-0.7,5.5,1,7.8,2.5c0.9,1.9,0,3.7,0.3,5.5c7.2,2,14.2,4.7,20.6,8.8l2-2
	c0.5-5.1-3.6-8.8-7.4-11.7c-2.5-1.5-6.2-0.6-8-2.9c1.2-1.9,1.2-4.8,1.1-6.9c-4,0-6.5-1.2-9.7-3.1c-2-0.6-3.8-2.3-5.5,0
	C565.3,472.7,564.9,478.6,559.2,481.5L559.2,481.5z"/>
<path class="st0" d="M567.6,331.1c3-0.8,6.1-1.7,8.6-3.8c8-7.3,19.6-2.4,28.9-2.5c-1.8-3.2-4.3-6.4-6.6-9.2
	c-3.3-1.3-6.5-2.9-10.3-2.9c-8.1-4.8-13.6,3.2-19.9,7.2C566.7,323.1,565.9,327.8,567.6,331.1L567.6,331.1z"/>
<path class="st0" d="M567.8,355.7c0-0.3,0-0.7,0.4-0.8c1.1,1-0.1,3.2,1.7,3.7c3.1-1.5,6-3.7,8.8-5.7c8,0,12.8-7.8,20.7-7.8
	c13.1,2.4,26.2,5,37.7,11.5c-0.8-7.8-7.5-14.8-14.3-18.3c-3.8-1.3-6.8,0.7-9.6,2.9c-8,5-3.8-7.3-9.5-7.5c-7.3,2.3-14.8,4.8-22.9,4.1
	c-4.8,1.8-8.1,6.2-13.5,5.7C567,347.3,566.4,352.1,567.8,355.7L567.8,355.7z"/>
<path class="st0" d="M573.3,382.4c2.5,2.6,6.7,2.1,10.3,2.6l10.4-4.1c0.1-1.9-3.1-2.4-2.4-4.5c2.9-3.2,6.8-1,10.4-2.3
	c5-0.7,10.2-5.7,15.2-2c-0.1,0.6,0.2,1.4-0.2,2c-1.6,3.7,1.1,6,3.9,7.4c5.9,1.1,11.3,6.5,17.2,4.1c-0.6-4.9-1.9-9.4-3.1-14.1
	c-4.9-0.8-8.4-4.9-12.9-6.6c-2,1.9-4.7,3.4-7.2,3.1c-9.2-2.1-20.2-7.9-29.5-2c-3.4,4.1-9.3,2.9-13.9,4.6
	C571.8,374.7,572.2,378.7,573.3,382.4L573.3,382.4z"/>
<path class="st0" d="M577.3,453.4c-0.7,2-2.7,5.4,1,6.3c7.7,0.2,17.5-3.7,23.4,2.3c2,1.6,1.1,4.8,1,6.8l10,8.4c1-5,2.7-9.6,2.9-15
	c-0.8-3.8-2.7-7.5-6.1-10c-6.6,0-10.4-7.7-17.5-6.7c-3.7-0.9-6.9,2.4-10.6,2.4C579.6,449.6,578.7,451.6,577.3,453.4L577.3,453.4z"/>
<path class="st0" d="M580.1,397.1c1.6,3.2,3.4,8.5,6.3,8.8c7-3.1,17.3-5,25.2-1.7c2.6,0.5,2.6,3.5,2,5.4c4.1,2.4,9,4.3,13.3,6.9
	l-1.2-7.2c-0.2-7.8-10.1-8.5-10.7-16.2c-8-2.6-17-3.5-25.5-1.4c-2.8,2.5-6.7,2.2-10.1,2.9C579.4,395.6,580,396.2,580.1,397.1
	L580.1,397.1z"/>
<path class="st0" d="M582.2,435.8c4.7-1.3,7.6-6.5,12.7-6.9c7.7,0.1,14.5,3.2,19.2,9.8c2.9,1.9,2.3,6.8,6,6.8
	c-1.1-5.9,0.9-11.2,0.6-17.2c-5-8.4-17.4-1.9-22.1-11.7l-8.8,0.6c-6.3,1.6-4.7,9-5.5,14C583.5,432.7,582,433.9,582.2,435.8
	L582.2,435.8z"/>
<path class="st0" d="M626,488.1c3.7,7.4,11.9,13,12.7,21.5c1.9-2.3,3.2-4.9,4.5-7.4c-0.1-2.4-2.9-2.4-4-4.3
	c-1.1-3.1,0.6-5.9,1.1-8.6c-1.6-4.4-5.3-8.6-9.4-11.2L626,488.1L626,488.1z"/>
<path class="st0" d="M640.8,469.2l8.6,11.7c3.7-5.9,3.7-14.5,2.3-21.5c-0.8-1.3-2.4-3.5-4.5-2.5
	C643.8,460.2,643.4,465.4,640.8,469.2L640.8,469.2z"/>
<path class="st0" d="M605.7,142c3.1,1.6,6.1,3,9.8,3.2c2.5-1.3,5.8-2.3,8.9-1.4c4.4,2.9,9.8-0.6,14.9-0.4c-4.5-4.3-9.7-6.9-14.9-9.4
	C617.7,135.4,612.3,140.2,605.7,142L605.7,142z"/>
<path class="st0" d="M652.5,153.2c6.3,0.6,10.9,6.2,15.2,10.9c5.4,0.8,9.5,4.6,12.7,8.6l-2-6.3c-1.4-6.3-5.4-11.3-9.4-16.3
	C663.1,150.5,657.5,150.9,652.5,153.2L652.5,153.2z"/>
<path class="st1" d="M206.3,100.8l3.5,0.4c9.3,4.7,24.4,7,25.2,20.6c-9.4,3.7-18.5,8.7-26,16.4c-5.7-5.9-17.3-2.6-19.2-12.9
	C191.5,115.5,195,103.3,206.3,100.8L206.3,100.8z"/>
<path class="st1" d="M215.3,161.4c10.9-0.9,21.4,0.6,32.6-0.4c2.7,1.2,5.6,3.6,6.9,6.3c-0.4,12.9-4.3,25.2-4.9,38.5
	c-4.9,2-9.7,6.1-10.9,11.5c-4.4,1.3-8.4,4-12.7,6c-1.9-4.1-1.5-10.2,1.8-13.5c4.7-6.6,16.7-5,15.8-15.4c3.1-5,0.1-11.5,0.2-16.7
	c-1.2-3.9-2.4,1.3-4.3,1.2c-3.8,0.8-7.8,1.1-11.1-0.8c-2.5-2.7-5.6-4.8-6.3-8.4c-3.4-1.7-7.3-4.3-9-7.8L215.3,161.4L215.3,161.4z"/>
<path class="st1" d="M228.4,239.3c5.1,0.7,10.5-1.6,14.9,0.9c-1,1.7-3.5,2.4-5.5,2.9l-8,3.7C226.9,246.1,228.6,241.3,228.4,239.3
	L228.4,239.3z"/>
<path class="st1" d="M249.4,139.5c5.1-1.7,10.6-5.1,16.1-3.5c-3.9,3.9-7,9.1-10,13.9l-16.4-0.3C240.9,145.2,245.4,141.6,249.4,139.5
	L249.4,139.5z"/>
<path class="st1" d="M297.3,135.6c6.8-1.2,6.4,7.7,12.7,8c1.1,1.4,2.6,2.7,2,4.9c-3.6,1.4-8.8,0.7-12.9,1.7
	c-5.4-3-1.9-12.3-10.4-11.7c-0.5-0.7-1.4-2.1-0.2-2.6C291.1,134.8,294.5,135.2,297.3,135.6L297.3,135.6z"/>
<path class="st1" d="M293,167.6c3-4.2,7.5-4.5,11.8-5.4l31,0.6c1.3,1.2-1.2,2.3-1.2,3.7c-1.9,1.8-4.7,2.3-6.3,4
	c-4.1,0.1-3.7,4.9-6.6,6.9c-4.4,4.4-10.9,2.4-16,1.7c-1.8-1.3-3.8-3.1-4.7-5.2l-1.4,1.4c1.8,6.7,1.3,14.1,2.6,20.9l7.4,4.9
	c0.1,11,13,8,18.7,14.1c-1.3,3.9-3.9,7.3-6.8,10.6c-4.5-4.4-9.7-7.3-15.2-9.2c-0.5-6.5-7.5-10.3-11.5-13.5
	c-1.1-11.7-1.3-23.7-3.2-35L293,167.6L293,167.6z"/>
<path class="st1" d="M304.2,241.3h14.4l-1.8,7.5l-14.4-6.1C302.1,241.6,303.4,241.2,304.2,241.3L304.2,241.3z"/>
<path class="st1" d="M330.1,105.9l10.6-3.4c6.1,2.9,11.8,6.5,17.4,10.5c4.4,8.1,3.7,19.1,1.7,28.2c-3.2,3.6-10.3,0-12.9,5.7h-0.5
	c-4-11.2-15.2-21.3-25.6-26.4C322.5,114.9,324.3,109.3,330.1,105.9L330.1,105.9z"/>
<path class="st2" d="M579.4,561.4h63.8c9.4-1.4,19.5-1.2,27-8.1c31.9,4.9,64.3-3,89.4-20.6c13.2-10.7,25.1-23.1,34.8-36.6
	c8.5-11.9,15.2-23,19.5-36.3c3.2-8.2,5.8-16.8,7.7-25.6c9.1-41.4,4.3-87.8-9.1-127.2c-2.5-7.3-5.3-14.4-8.4-21.1
	c-16.8-34.8-39.7-72.3-75-94.3c-19.9-12.4-38.2-31.6-49.4-51.4c-6.1-5.5-12-12.8-19.9-14.1c2.2,3.6,4.5,7,5.2,11.2l-0.5,0.6
	c-8.4,0.2-14.9-4.2-20.7-9.6l6.3-5.7c-2.4-1.2-5.2-1.7-7.8-2.3c-24.2-2.7-44,8.4-65.4,13.7l-0.4,1.2c13.1,5.9,15.9,20.3,23.5,30.1
	c1.9-2.3,5.2-0.6,7.8-0.9c3.8,0.2,7.4,3,11.1,2c0.1-3.2-1.7-5.7-2.3-8.6c2.3-1.1,5-0.1,7.5,0c6.9,4.1,18.1-0.7,22.4,8.6
	c-7.9,0.5-15.3,2.1-22.7,3.9c0.5,3,3.5,5.4,3.2,8.4c-6.3-2.7-13-4.3-20.1-5.2l-0.3,1.1c9,10.5,21.3,16.7,33.8,20.5
	c18.1,4.2,33.9-4.4,51.4-1.4c42.8,19.6,79.4,64.5,95.3,107c0.8,2,1.5,4.1,2.2,6.2c13.3,38.9,15.8,86.7,2.5,127.2
	c-7.1,16.9-14.9,32.8-27.5,46.5c-4.7,5.8-10,11-15.7,15.4c-18,14-40.1,20.1-62.9,13.9c-1.4-0.9-4.3-1.2-3.8-3.7
	c0.8-3.3,1.5-6.7,2.2-10.2c3.8-19.5,5.5-39.9,4.5-60.3c-0.1-0.9-0.1-1.8-0.1-2.6c-1.3-29.7-7.2-56.3-18.1-82
	c-7-14.7-15.3-30.8-25.8-45.2c-12.5-17.2-28-32-47.9-39.5c-12.2-3.2-27.3-3.8-36.5,6.3c-6.6,5.7-9.3,13.5-8.4,22
	c-10.3,6.5-21.8,10.1-34.4,11.1c-3.1,0.3-6.2,1.4-9.4,1.4c-3.1,0.1-6,0-8.9-0.4c-15.2-1.9-30.5-10-42.1-19.4
	c-0.2-6.2-0.6-12.1-0.9-18.6c-6.7-3.5-12.2-10.1-12.7-17.8l0.6-0.6c3.8,1.2,7.2,3.1,10.6,5.1c-1.6-9.3-3.3-18.5-8-26.7
	c-4.3-1.8-8.6-3.2-12.7-5.4c-4.7-3.1-7.7-8.7-8.4-13.9c4.2,4.1,11.5,2.6,14.7,6.9c-5.6-16.6-5.7-35.6-14.9-50.8
	c-4.7-11.2-16.9-16.4-25.2-24.6c-3.2-3.9-4.5-9.4-10.4-10c-4.8-1.2-5.2-6.6-6-10c3,0.3,5.5,2.4,8,2.9c-7-18.4-13-38.8-31.8-50.6
	l-3.2,2c-7.3,1.1-15.1,1.6-22.4,1.8c3.2-4.8,9-6.8,13.5-9c-5.3-3.9-9.6-4.9-16.2-6c-3.8,3.8-10.7,5.7-15.6,6.8l-0.6-0.5
	c-0.1-4.3-1.1-9.6,5.3-10.6c-6.2-3-16.5-1.8-22.8,0c-1.8,4.7-6.9,8.8-6.6,14.3c-3.7,3.8-6.3,9-10.2,11.7c-0.1-9.2,3.8-17.7,5.5-25.5
	c-5.4,2-10.8,4.9-16.1,7.4c-8.5-4.9-17.4-9.8-26.5-13.5c-0.9-0.4-2.7-0.7-2.3,0.8c7.8,5.6,4.8,16.1,5.6,24.1l-4.9-4.1
	c-2.4-6.1-9.3-10.5-10.5-17.2c-8.1,1.6-13.3,3.7-20.9,6.9l-1,0.6c5.6,0,10.4,4.4,13.2,8.8c-8.5,0.5-16-2.9-24.4-3.7
	c-0.9-0.8-1.6-1.8-2.9-1.7c-4.2,1.6-7.8,4.5-11.5,7.4c-8.2,8.1-16.6,17.1-20.6,27.8c2.8,0.5,6.2,0.4,8.2,2c-4.5,2.7-8.5,7.4-12.9,10
	c-1.6,6.2-1.3,13.3-1.7,20.1c-3.5,5.3-8.1,9.9-10.4,15.8c-7.4,24-9.3,50.7-8.2,77.9c-2.4,2.3-5.5,3.7-7.8,5.5l0.2,24.4h0.6
	c1.1-5.1,7.2-8,10.9-11.5h1.2c-0.6,5.5-1.3,11-1.4,16.6l-6.9,5.7c-6.9,6.1-1.1,15.3-1.7,22.9c0.5,2,0.8,5,2.3,5.5
	c0.8-3,3.5-5.1,5.1-7.8c3-0.7,5.6-3.1,8.4-3.5c-1.5,6-3.6,11.8-6,17.6c-1.1,0.8-2.5,1.8-3.7,3c-1.2,1.3-2.2,2.8-2.4,4.5
	c5.4,28.3,13.8,56.3,23.5,83c-6.6,11.1-10.3,24.2-15.8,35.7c-0.8,1.6-1.5,3.2-2.1,4.9c-5.5,13.9-7.2,29.4-14,42.8
	c-2.7-1.9-5.7-3.4-8.8-4.7c-12.9-4.3-27.9-1.6-37.3,8.4c-8.4-1.6-17-0.1-23.6,4.3c-4.7,3.5-8.4,7.8-10.5,12.8
	c-1.4,3.5-2.1,7.2-1.8,11.3c-5.4,3.7-8.3,9.4-10,15.2c-2.5,12.9,2,26.4,9.4,36.3H579.4L579.4,561.4z"/>
<path class="st0" d="M812.5,307c-2.5-7.3-5.3-14.4-8.4-21.1c-16.8-34.8-39.7-72.3-75-94.3c-19.9-12.4-38.2-31.6-49.4-51.4
	c-6.1-5.5-12-12.8-19.9-14.1c2.2,3.6,4.5,7,5.2,11.2l-0.5,0.6c-8.4,0.2-14.9-4.2-20.7-9.6l6.3-5.7c-2.4-1.2-5.2-1.7-7.8-2.3
	c-24.2-2.7-44,8.4-65.4,13.7l-0.4,1.2c13.1,5.9,15.9,20.3,23.5,30.1c1.9-2.3,5.2-0.6,7.8-0.9c3.8,0.2,7.4,3,11.1,2
	c0.1-3.2-1.7-5.7-2.3-8.6c2.3-1.1,5-0.1,7.5,0c6.9,4.1,18.1-0.7,22.4,8.6c-7.9,0.5-15.3,2.1-22.7,3.9c0.5,3,3.5,5.4,3.2,8.4
	c-6.3-2.7-13-4.3-20.1-5.2l-0.3,1.1c9,10.5,21.3,16.7,33.8,20.5c18.1,4.2,33.9-4.4,51.4-1.4c42.8,19.6,79.4,64.5,95.3,107
	c0.8,2,1.5,4.1,2.2,6.2c13.3,38.9,15.8,86.7,2.5,127.2c-7.1,16.9-14.9,32.8-27.5,46.5c-4.7,5.8-10,11-15.7,15.4
	c-18,14-40.1,20.1-62.9,13.9c-1.4-0.9-4.3-1.2-3.8-3.7c0.8-3.3,1.5-6.7,2.2-10.2c3.8-19.5,5.5-39.9,4.5-60.3
	c-0.1-0.9-0.1-1.8-0.1-2.6c-1.3-29.7-7.2-56.3-18.1-82c-7-14.7-15.3-30.8-25.8-45.2c-12.5-17.2-28-32-47.9-39.5
	c-12.2-3.2-27.3-3.8-36.5,6.3c-6.6,5.7-9.3,13.5-8.4,22c-10.3,6.5-21.8,10.1-34.4,11.1c-3.1,0.3-6.2,1.4-9.4,1.4
	c-3.1,0.1-6,0-8.9-0.4c-15.2-1.9-30.5-10-42.1-19.4c-0.2-6.2-0.6-12.1-0.9-18.6c-6.7-3.5-12.2-10.1-12.7-17.8l0.6-0.6
	c3.8,1.2,7.2,3.1,10.6,5.1c-1.6-9.3-3.3-18.5-8-26.7c-4.3-1.8-8.6-3.2-12.7-5.4c-4.7-3.1-7.7-8.7-8.4-13.9
	c4.2,4.1,11.5,2.6,14.7,6.9c-5.6-16.6-5.7-35.6-14.9-50.8c-4.7-11.2-16.9-16.4-25.2-24.6c-3.2-3.9-4.5-9.4-10.4-10
	c-4.8-1.2-5.2-6.6-6-10c3,0.3,5.5,2.4,8,2.9c-7-18.4-13-38.8-31.8-50.6l-3.2,2c-7.3,1.1-15.1,1.6-22.4,1.8c3.2-4.8,9-6.8,13.5-9
	c-5.3-3.9-9.6-4.9-16.2-6c-3.8,3.8-10.7,5.7-15.6,6.8l-0.6-0.5c-0.1-4.3-1.1-9.6,5.3-10.6c-6.2-3-16.5-1.8-22.8,0
	c-1.8,4.7-6.9,8.8-6.6,14.3c-3.7,3.8-6.3,9-10.2,11.7c-0.1-9.2,3.8-17.7,5.5-25.5c-5.4,2-10.8,4.9-16.1,7.4
	c-8.5-4.9-17.4-9.8-26.5-13.5c-0.9-0.4-2.7-0.7-2.3,0.8c7.8,5.6,4.8,16.1,5.6,24.1l-4.9-4.1c-2.4-6.1-9.3-10.5-10.5-17.2
	c-8.1,1.6-13.3,3.7-20.9,6.9l-1,0.6c5.6,0,10.4,4.4,13.2,8.8c-8.5,0.5-16-2.9-24.4-3.7c-0.9-0.8-1.6-1.8-2.9-1.7
	c-4.2,1.6-7.8,4.5-11.5,7.4c-8.2,8.1-16.6,17.1-20.6,27.8c2.8,0.5,6.2,0.4,8.2,2c-4.5,2.7-8.5,7.4-12.9,10
	c-1.6,6.2-1.3,13.3-1.7,20.1c-3.5,5.3-8.1,9.9-10.4,15.8c-7.4,24-9.3,50.7-8.2,77.9c-2.4,2.3-5.5,3.7-7.8,5.5l0.2,24.4h0.6
	c1.1-5.1,7.2-8,10.9-11.5h1.2c-0.6,5.5-1.3,11-1.4,16.6l-6.9,5.7c-6.9,6.1-1.1,15.3-1.7,22.9c0.5,2,0.8,5,2.3,5.5
	c0.8-3,3.5-5.1,5.1-7.8c3-0.7,5.6-3.1,8.4-3.5c-1.5,6-3.6,11.8-6,17.6c-1.1,0.8-2.5,1.8-3.7,3c-1.2,1.3-2.2,2.8-2.4,4.5
	c5.4,28.3,13.8,56.3,23.5,83c-6.6,11.1-10.3,24.2-15.8,35.7c-0.8,1.6-1.5,3.2-2.1,4.9c-5.5,13.9-7.2,29.4-14,42.8
	c-2.7-1.9-5.7-3.4-8.8-4.7c-12.9-4.3-27.9-1.6-37.3,8.4c-8.4-1.6-17-0.1-23.6,4.3c-4.7,3.5-8.4,7.8-10.5,12.8
	c-1.4,3.5-2.1,7.2-1.8,11.3c-5.4,3.7-8.3,9.4-10,15.2c-2.5,12.9,2,26.4,9.4,36.3h211.3c-3.1-3.7-6-8.8-8.1-13.3
	c-4.5-6.8-1.4-16.5-1.9-24.4c4.3-8.7,8.7-17.4,13.6-25.9c1-1.7,2-3.4,3-5l9.7-3.7c5.1,0,9.5-3.7,14.3-2.4c6.6,6.6,6.6-6.6,12.9-7.2
	c14.8-1.9,29.5-0.5,37.9,12.1c0,1.7,2.7,1.7,2,3.2c-1.9,0.6-3.7-0.6-5.7-0.6c-9.1-2.3-19.7-8-28.7-2.9c-0.3,2.1-0.8,4.3-1.2,6.5
	c-0.4,2.3-0.9,4.5-1,6.7c5.9,1.7,10.8,5.9,15.2,10.4c3-5.9,9.3-8.5,14.9-10.4c4.9,1.1,10.3,1.2,14.4,4.3c7.5,7,3.8,18.8,3.1,27.6
	c6.8,3.8,14.3,6,21.3,9.7c-3.2,2.9-7.5,4.1-11.5,5.5l-11.5-2.3c-1.3-1-3.6-1-4.1-2.6c-3.8,4.1-8.5,9.5-10.9,14.7H500
	c-2.2-4.9-4.7-8.7-7.6-13.3c-3.4-7.2-2-17-2.4-24.6l15.3-23.3c8.4-0.1,17.8-3.2,26.9-1.7c0.5-0.2,0.9-0.4,1.3-0.7
	c3.8-2.6,4.9-8.7,10.5-7.9c10-2.7,17.7,1.8,25.2,6.3c-0.2,0.6-0.5,1.1-0.8,1.6c-3.2,5-9.1-0.6-13.4,0.9c-1.8,1.9,0.9,4.2,1.2,6.3
	c1.6,2.1-1.6,1.9-2.6,2.3c-2.5,0.4-5.2-0.2-7.2-2.3c-0.5-0.6-0.1-1.3-1.1-1.4c-2.2,3.6-5.3,6.8-6.1,10.9c2.7,2.6,6.4,5.3,7.8,8.6
	c2.7,3.9-2.2,6.9-3.1,10.4c-0.4,0.7-1.5,0.7-1.8,0c-2.5-1.4-4.7-5-7.4-4.1c-2.4,10.6,0.8,21.3-0.6,31.9c4.7,1.1,10.2-0.2,15.2,0
	l2-22.5c2.1-14.6,10.8-26.8,20.9-37.9c11-7.5,18.1,7.3,26.2,12.4c1.3,0.2,0.9,1.7,1.4,2.5c-0.1,2.4-2.6,3.4-4.3,4.1
	c-5,1.8-8.7-3.7-11.8-7c-3,3.2-4.3,7.5-7.8,10.1l1.2,0.3c4,4,7.8,8.1,8.6,13.4c-0.5,4.8-2.9,9.4-7.2,11.8c-3.2-5.5-5.9-11.6-8-17.2
	c0.1,0.2-0.1,0.4-0.4,0.6c-6.6,1.8-8.4,9.2-9.4,15.2c0.4,5.9-4.1,8.2-2.9,14.1h85.2c9.4-1.4,19.5-1.2,27-8.1
	c31.9,4.9,64.3-3,89.4-20.6c13.2-10.7,25.1-23.1,34.8-36.6c8.5-11.9,15.2-23,19.5-36.3c3.2-8.2,5.8-16.8,7.7-25.6
	C830.7,392.7,825.9,346.4,812.5,307L812.5,307z"/>
<path class="st0" d="M263.9,528.9c4.7-3,12.2-3.7,13.3-10.6c-1.9-1.4-3.6-3.2-5.7-3.7l-4.9,1.4c0.4-2.9,1.9-6.1,2.9-9.2l15.8-5.1
	c-2.2,7.2-3,16.1-3.7,24.4c1.4,12.2,3.2,25.2,9.5,35.4h-17C272,550.2,260.3,542,263.9,528.9L263.9,528.9z"/>
<path class="st0" d="M300.6,514.5h1l11.5,10.4l1.7-0.4c-0.9,12.2-1.5,24.2-1.7,36.8h-12.4c-2.5-11.8-6.7-24.3-6.2-37.1
	C296.5,521.1,297.9,517,300.6,514.5L300.6,514.5z"/>
<path class="st0" d="M326.1,526c2.3-3,3.2-8,7.8-8.6c3.2,0.1,6.2,0.6,8.6,2.9c4.2,5.3,0.1,12-1.4,17.2c-1.7,8-4.6,16.4-7.2,23.9
	h-12.1L326.1,526L326.1,526z"/>
<path class="st0" d="M507.5,522.3c2.6,3.4,3.5,7.9,7.4,10.9c3.5-4.8,4.3-12.2,2.6-18.3l-3.5-3.5c4.4-1.1,9.1-1.4,13.5-2.3
	c-1.9,6.3-5.5,12.1-4.9,19.5c0.1,10.8,1.9,21.5,2.9,32.8h-13.1c-4.8-10.5-9.6-20.6-9.2-32.8C504.6,526.5,505.6,524,507.5,522.3
	L507.5,522.3z"/>
<path class="st2" d="M564,292.6c-0.1,3.1-2.4,6.6-0.4,9.2c2.9-3.2,7.7-3.1,11.5-4.5c10.6-1,20.8,2.4,30.7,4.8c-2.5-4-4.2-8.4-6.9-12
	c-5.5-1.5-13.9,2.4-14.8-5.8c-3.3-2.9-8.6-0.8-12.1-0.6C568.7,286.1,566,289.1,564,292.6L564,292.6z"/>
<path class="st0" d="M198.7,189.3c0,0-0.1-0.1-0.2-0.1c0,0.1,0,0.1,0,0.1H198.7L198.7,189.3z"/>
<path class="st2" d="M242.1,295.6l7.2-6.9c0.6,0,1.1,0.1,1.4,0.6l-0.6,13.3c3.5,3.2,7.7,4.3,12.3,4.5c0.4-3.6,3.1-6.1,4.7-9.2
	c1.3-2.5,0.5-6.2,3.1-8l0.9,0.8c0.8,4,0.6,8.4,2.6,11.8c0.2,1.9,0.6,4.3,0.8,6c5.3,0.2,10.1-1.2,14.1-3.1c-0.2-4.5,1.3-8.2,2-12.4
	c1.1-1.4-1.3-4.1,1.7-4c1.7,3.6,4.7,7.3,6.3,11.1c6.9-7,9.8-16.3,11.5-25.8c-2-2.7-5.1-2.7-7.5-4.5c-20.3-6.6-46.4-7.9-66,2.3
	C235.3,280.2,237,289.2,242.1,295.6L242.1,295.6z"/>
<path class="st2" d="M52.1,520c-0.7,9.2,0,17.9,0.6,26.9c1.9,3,5.4,6.5,8.9,6.7l0.6-6.1c1.4-8.5-3.1-17.5,1.7-24.7
	c3.3,1.1,6.7,2.7,9.6,4.3c1.4-7.9-0.6-17.1-8.1-21.9L52.1,520L52.1,520z"/>
<path class="st2" d="M81.7,507.1c-4.7,14-8.1,31.2-2.5,46c3.2-2.2,6.6-4.2,9.4-7.2c-0.6-11.3-2.1-23.3,4.5-32.6
	c5.9,1.8,9.8,7.4,12.1,12.9c4-5,5.3-12,3.7-18.6c0.2-5.3-5.7-4.1-8.6-6.2c0.9-4.4,0.8-9.5,5.5-12.1l-14.3,1.4
	C87.8,496,83.7,501.1,81.7,507.1L81.7,507.1z"/>
<path class="st2" d="M111.2,548.4c0.6,1.1,0,3,1.2,3.2c1.8-10.1,9.9-16.5,14.3-25.4c2.1-3,2-7.2,5.5-9.4c4.7,0,8,3.3,12.6,3.7
	c1.4,1.1-0.7,2-0.9,3.2c-0.9,8.1-4.1,14.9-3.5,23.3h0.8c6.3-6.7,10.6-13.9,15.3-21.6l0.8-6.8c1.1-8.1-7.8-13.4-13.5-16.7l5.2-6.6
	l-7.2-2.5c-8.4,0.8-15.9,4.3-21.8,10.9C112.9,517,111.7,532.1,111.2,548.4L111.2,548.4z"/>
<path class="st2" d="M143.4,477.4c2.7,0.8,5.3-1.4,8-0.2c11,4.1,22.5,8.3,30.7,17.4l9.8,25l4.9-15.4l-3.2-8.4
	c-2.7-6-10.3-5.5-15.4-5.7c-2.1-2.4,0.1-5.2,0.8-7.4c2.5-8.5-7.9-8-12.1-11.5c0.2-5.1-6-3.4-9.5-3.8l-1.2-1.4
	c-0.7-1.1-2.5-1.1-3.5-0.2c-0.2-0.4-0.7-0.6-0.5-1.2l-2.6,0.6C146,468.3,143.5,472.5,143.4,477.4L143.4,477.4z"/>
<path class="st2" d="M150.3,449.9c0.4,1.5,1.3,3.1,2.5,4.1c5.4-1.4,10.5-5.2,16.7-2.9c8,7,16.4,14.5,26.1,18.3l3.5-0.6
	c2.1,0.7,4.5,0.8,6,3.2c1.3,3.2-2,5.1-3.1,7.8c5.4,4,3.2,11,6.6,15.8l8.6-11.5c-2-5,0.1-13.6-7.7-14.1c-2.7-1.3-4.4-3.9-4.3-6.9
	c-5.1-4.7-11.5-6.7-16.6-11.5c-4.2-3.3-6.7-8.5-12.1-9.7c-3.7-2-7.8-3.1-12.1-4.1C156.3,436.6,155.5,446.2,150.3,449.9L150.3,449.9z
	"/>
<path class="st2" d="M161.8,426.4l1.4,2.3c6-0.4,11.3-3,17.2-2.9c3.9,2.4,9.1,2.3,13.1,4.3c3.2,4.4,6.7,9.4,11.5,12.4
	c9.7,1.4,15.1,11.9,18.4,19.5v-3.7c1.4-5.2-0.1-11.1-2-15.8c-2.4-2.4-5.9-3.9-8.4-6.1c-0.5-1.6-0.1-2.3,0.4-3.7
	c-3.7-3.9-9.2-6.1-13.8-9.2c-6.3-9.2-18.5-6.7-28.2-9.2L161.8,426.4L161.8,426.4z"/>
<path class="st2" d="M161.6,338.7c1.1,3.7,2.4,8.4,3.1,12.3c3.3-7.4,9.9-10.8,15.8-16.9c-3.4-2.3-7.5-3.4-11.2-4.1v-0.2
	C166.6,332.4,162.5,335.1,161.6,338.7L161.6,338.7z"/>
<path class="st2" d="M183.3,378l5.4-5.5c5.4-5.5,9.8-11.9,10.6-18.9c-3.8-2.3-8.8-0.7-12.5,0.6C185.4,362,183.4,369.6,183.3,378
	L183.3,378z"/>
<path class="st2" d="M187.2,394.9c8.3,0.5,16.3,2.1,23-2.5l6.7-21.5c-2.2-0.1-4.3-1.1-6.3-0.4C206.1,380.3,197.3,390,187.2,394.9
	L187.2,394.9z"/>
<path class="st2" d="M189.6,318.6c5.4,7.9,14.4,16.7,23.5,19.2c-1.1-10.1-9.7-17-14.1-25.6l-0.2-2.9c-3.5-3.4-7.6-5.6-11.2-7.4
	C187,307.7,188.6,313.2,189.6,318.6L189.6,318.6z"/>
<path class="st2" d="M218.8,395.8c6.3,1.1,13.2,0,19-1.8c8.5-2,13.2-11.3,16-18.6h-10.6l-11.5,11.2
	C227.2,389,222.9,392.6,218.8,395.8L218.8,395.8z"/>
<path class="st2" d="M217.5,307.7c1.8,9.3,5.8,17.8,11.1,25.8l1.4-17.8L217.5,307.7L217.5,307.7z"/>
<path class="st2" d="M256.7,354.2c0.7-6-1.8-12.9-2.5-19c-3.6-2.4-8.6-2.2-12.3-4.5C242.1,340.1,249.5,348.1,256.7,354.2
	L256.7,354.2z"/>
<path class="st2" d="M245.8,414.9c7.5-2.4,14.8-5,21.8-8.8c4.4-6.3,11.1-12.1,12.1-19.5c-5.5,1.6-10.3-0.2-15.4,2.3
	c-3.1,5.6-5,12-11,16C252.3,409,247.8,411.7,245.8,414.9L245.8,414.9z"/>
<path class="st2" d="M257.5,429.6l9,11.7c4.8,1.6,10.8,1.1,14.9-1.7l-3.2-10.6C271.9,431.4,264.3,430.7,257.5,429.6L257.5,429.6z"/>
<path class="st2" d="M272.5,345l3.5,15.8c8.4-6.8,10.1-16.7,9.8-27.2C281,339,278.2,342.4,272.5,345L272.5,345z"/>
<path class="st2" d="M296,372.9c0.1,2.3,0.7,4.4,2,6.2c9.3,3.4,10.3,14.7,18.9,19c5.6,2.5,12.1-0.6,17-2.9c-3.7-4.2-7.9-7-11.5-11.5
	c-2.5-1.1-5-2.6-4.9-5.7L296,372.9L296,372.9z"/>
<path class="st2" d="M303.4,429.3c4.1,4.6,9.5,7,15.3,8.4c-1-1.3,0.6,0,0.8-0.8l-7.2-15.8c-3.6,0.1-7.3,0.9-10.6,0.6
	C302,424.3,302.6,426.9,303.4,429.3L303.4,429.3z"/>
<path class="st2" d="M316.1,355.6c-3.4-7.8-4.7-17.2-5.7-25.8c-3.6,4.3-7.3,7.1-10.6,11.5C298.2,350.1,310.8,352.3,316.1,355.6
	L316.1,355.6z"/>
<path class="st2" d="M330.7,347.5c4.3,5.6,13.8,3.7,19,2c-2.5-4.3-10.6-6.8-12-11.5c-0.8-8.3-2.5-16.3-5.2-23.8
	C328.3,324.5,323.3,336.5,330.7,347.5L330.7,347.5z"/>
<path class="st2" d="M338.2,372.9c12,8.7,23.7,18.9,40.4,15.2c1.2-0.8,3.2-0.7,3.5-2.3c-4.9-3.1-10.2-5.5-15.2-8.4l-5.7-8.4h-2.6
	C352.1,371.2,345.2,372,338.2,372.9L338.2,372.9z"/>
<path class="st2" d="M338.5,469.8h0.9c7.2-5.7,15.6-7.7,24.1-10c2.3,0.8,0.8,3.4,2.9,4.3c5.1-2.1,11.3-1.7,16.6-3.5
	c6.3,0.2,11.5,0.3,16.6,3.1c4.1,5.4,11.7,4.8,17,8.4l-0.9-8.4c-11.1-13-28.4-14-44.5-13.7l-0.4-1.7c-3.8,0-8.1,0.8-11.7,2.5
	c-5.1,0.2-10,2.7-14.9,4.3C341.9,459.6,340.1,465.2,338.5,469.8L338.5,469.8z"/>
<path class="st2" d="M348.1,322.9c4.7,6.1,11.6,10.8,19.5,9.2c-4.1-4-8.7-8.1-9-13.8c1.2-10.6-10.5-11.5-16.3-17
	C344.2,308.5,344,316.6,348.1,322.9L348.1,322.9z"/>
<path class="st2" d="M346.8,491h1.4c6.3-3.9,15.5-0.9,21.8-5.1c3.5-1.8,3.7,3,6.1,4.3c5.9,3.6,6.6,14.3,14.8,11.8
	c9.9,5.1,7.4,17.2,7.8,26.1l9.2-5.7c-0.8-4.7,1.8-10.3-1.2-14.3c-2.3-5.1-8.5-5.6-11.5-9.8c3.6-6.1-4.5-9-6.2-13.4l0.5-0.6l12.7,1.7
	c4.3,2.6,5.9,7.4,7.2,11.8c9.9,1.7,12.3,12.9,15.8,20.1c2-4.9,2.9-10.2,4.9-14.9c0.1-3.9-5.1-3.9-7.8-5.7
	c-0.7-6.1-3.5-11.8-8.8-15.5c-11-2.8-20.7-8.8-32.7-8.8l-10,3.1c-5.5,1.3-11.4-0.3-15.6,3.5C348.9,479.7,348.4,486.5,346.8,491
	L346.8,491z"/>
<path class="st2" d="M353.1,441.7l2.3,1.1c4.9-2.3,9.8-4.9,14.9-6.8c8-2.3,14.2,6.8,20.9,1.1c2.5-1.8,4.7,0.9,6.6,2.3
	c2.9,5.3,9.6,4.9,14.6,6.3c-2.5-6.8-5.6-16.1-14.4-17.2c-3.5-1.5-7.5-1.4-10.9-3.5c-9.2-10.2-15.2,8.4-25.3,3.8
	C358.4,432.7,354,436.5,353.1,441.7L353.1,441.7z"/>
<path class="st2" d="M355.4,499.9c3.8,3.2,7.8,8.7,13.8,8c7.4,3.5,4.3,13.3,8.4,18.4l4.3-3.8l-0.4-0.2l0.6-0.6l0.2,0.3
	c1.2-3.6-0.5-9.9-2.5-14.1c-2.7-1.9-5.9,0.1-8.6-1.7c-0.4-3.8-2.7-5.7-5.5-8.1c-1.9-1.5-4.4,0.5-6.6,0.3L355.4,499.9L355.4,499.9z"
	/>
<path class="st2" d="M370.4,354.2c3.9,6.6,11.6,10.6,17.7,15.2c5,2.3,11.6,2.9,17,1.7c-5.2-4.2-9.8-9-14.1-14
	c-1.7-2.4-2-5.4-4.3-7.5C381,350.6,374.7,350.5,370.4,354.2L370.4,354.2z"/>
<path class="st2" d="M377,311.4c5.5,6.8,14,4.1,21.7,4.3v-0.8l-11.9-10C383.4,305.9,379.9,308.9,377,311.4L377,311.4z"/>
<path class="st2" d="M156.9,198.7l6.9,21.5c-0.1-12.2,5.5-22.4,4.3-34.8l5.1-7.7l-10.9,3.4C159.5,186.6,157.1,192.1,156.9,198.7
	L156.9,198.7z"/>
<path class="st2" d="M161.6,161.4l9.4-5.5v-14c-4,2.4-6.1,6.5-9.2,9.7L161.6,161.4L161.6,161.4z"/>
<path class="st2" d="M355.5,183.1c-2.3,3-5.7,3.7-8.6,4.3c5-9.2,7.4-22,3.5-32.4c2.6-1,5.5-1.4,8-2.9l-0.2-0.2l6.6-5.7
	c8.7-6,5.4-17.3,8.6-25.8c-4.3-6.7-5.6-14.8-11.8-20.4l0.4-0.2c-4.9-6.2-13.7-5.5-20.4-8.6c-8.9-3-15.7,3.1-22,7.2
	c-2.7,0.5-1.1,4.1-4.1,3.9c-1.7,4.4-3.7,9.2-4.9,14.1c-11.8-1.7-24.6-0.4-34.1,6.3c-5-3.7-11.1-4.4-17-6.1
	c-4.3-0.9-9.2,0.7-12.3-1.7c-4.5-5.1-5.5-14.5-13.3-15.8c-2.7-1-3.3-4-3.3-6.6c-5.2-0.9-9.7-3.2-14.7-4.3c-7.7-3.5-13.8,2-19.5,5.7
	c-2.5,1.1-5.4,1.4-7.8,2.9c-4.3,6.7-8.4,13.5-11.1,20.9c0.9,6.1,3.5,11.5,6.6,16.6c2.7,7.8,11.3,13.9,18.6,17
	c-3.5,11.8-3.5,25.9,0,37.9c0,0-0.2,0.2-0.2,0.1c0,0-0.4,0.4-0.4,0.4c-1.1,0-2.4,0.2-3.3-0.4h-0.1c1.7,11.4,7.1,21.4,15.8,30
	c3.1,1.1,2.4,4.8,3.7,7.2c0.9,1.1,1,3.3,0.6,4.3c-18.7-0.6-35.3,4.1-50.2,12.6c-3.8,1.9-2.1,7.2-2.5,10.9
	c10.5-6.9,21.9-12.1,34.4-14.4c5.4-0.3,11.5-1.7,16.6-0.2l0.6,10.3c-14.2,7.4-29.8,11.7-41.9,23.9c0.2,3.7-0.5,8,0.6,11.1l10.9-8.8
	c10.5-8,21.5-14.8,33.6-19.2c3.2,3.8,6.6,7.9,10.9,10.3c7.3-4.7,15.2-8.1,23.5-10.3c4.4-2.6,11.5-0.2,14.4-5.5l2-10.9
	c-0.3-0.2-0.6-0.7-1.2-0.6c-5.6-3.2-9.3-8.8-8.8-15.4c-1.9,0.9-4.1,1.6-6.3,1.7c-1.9-0.5-3.7-0.9-4.5-2.9c-0.1-2.4-1.3-6,1.1-7.7
	c7.8-4.8,17.8-5,27.6-4.3c7.3,1,17.8,0.6,20.3,9.2c-0.4,2.5-0.1,5.3-2.7,6.9c-2.6,1.4-5.6-0.1-8-1.2c-1.9,5.9-5.1,12.4-11.7,14.4
	l0.8,6.9c0.8,3.1,1.1,8.3,6,7.2c11.3,2.8,21.4,8.6,31.3,14.9c3.4-3.3,6-7.2,8.4-10.6c17.7,6,33,19.3,47.6,31.6l0.6-10.1
	c-13.9-12.3-29.3-21-45.3-27.9c0.6-3.2,1.3-6.3,1.5-9.8c19,1.1,37,6.9,52.7,16.1l-0.2-8.6c-16.5-8.8-34.5-14.7-54.3-14.9
	c-0.7-1.1-1-2.6-0.9-3.7c9.6-1.5,16.4-11.5,18.7-20.1c4.9-5.6,12-11.7,10.3-20.1c0.2-0.7,0.5-1.4,0.7-2.2
	C355.6,187.3,356.2,185.1,355.5,183.1L355.5,183.1z"/>
<path class="st2" d="M372.1,213.9l9.8-3.1l1.1-5.5c2.7-8-3.1-14-6-20.3L372.1,213.9L372.1,213.9z"/>
<path class="st2" d="M396.8,251.7c4.7,5.1,9.2,13.4,17.5,10.9c-0.6-3.5-2.5-6.3-3.7-9.5c-2.1-2.5-2.9-9.7-7.2-7.2
	c-3.2-2.1-4.1-5.7-6.1-8.6C396.4,241.8,396.9,247.3,396.8,251.7L396.8,251.7z"/>
<path class="st2" d="M398.5,286.8c1.8,2.5,2.3,5.7,4.1,8c3.2,2.1,8,1.8,12,1.4c3.6-0.9,5.9,3.1,9.2,0.8c-4.2-2.6-6.7-7.4-10.6-10.9
	C408.4,282.5,403.4,285.7,398.5,286.8L398.5,286.8z"/>
<path class="st2" d="M404.8,342.4c8.3,4.9,18.7,9.7,29.7,8c1.2-0.6,3.2-0.5,3.5-1.9c-6.8-2.4-14-9.2-21.1-10.6
	c-3.9-6.1-9.1,1.6-14.1,1.1C402.9,340.3,404.3,341.4,404.8,342.4L404.8,342.4z"/>
<path class="st2" d="M429.7,447.9l1.8,3.8c1.8,12.4,9.7,23.9,5.4,37.5c3.6,2.5,4.7,6.7,6.9,10.1h0.6c2.7-10.4,0.8-21.2-0.6-31.6
	C444.9,458.3,435.3,452.8,429.7,447.9L429.7,447.9z"/>
<path class="st2" d="M431.7,325.5c6.2,4.8,16.1,5.3,23.3,2.9c-4.5-2.5-9.5-5.3-13.3-8.6L431.7,325.5L431.7,325.5z"/>
<path class="st2" d="M461.2,362.2c-0.6,5,2.7,9.2,6.3,11.7c1.3-3,3.4-5.5,3.7-8.9c-1.1-5.1-3.9-9.8-8.6-13.3
	C461.8,355.2,460.9,358.4,461.2,362.2L461.2,362.2z"/>
<path class="st2" d="M461.6,416.7c-0.9,5.6,5.4,6.3,8,9.5c2.2,2.6-1.4,4.4-1.4,6.9c4.5,5.9,7.2,12.5,7.2,20.3
	c1.8-7.3,4.5-14.2,5.5-21.7c-0.5-5.3-8.8-4.2-7.5-10c2.4-6-0.5-11.8-2-17.2c-0.5-0.8-1.6-2.5-2.5-2
	C466.6,407.3,461.2,410.8,461.6,416.7L461.6,416.7z"/>
<path class="st2" d="M478,388.3l6.2,12.1c2.7-0.4,4.5-3,6.7-4.9c1.7-5-2.8-8.2-4.1-12.3c-1.1-2.9,0-6.7-2-9.2c-1.5-1-3.3-2.5-5.1-2
	L478,388.3L478,388.3z"/>
<path class="st2" d="M486,356.5c4.9,3,10.5,7.3,13.2,12.6c4.2,12.2,10.9,23.2,15.8,35c1.8,8.3,3.2,15.6,5.5,23.7
	c0.9,2.2,0.4,6.3,3.7,6c0.9-9.1,2.7-17.8,2.9-27.3c-3-3.9-6.9-5.6-10.6-8v-0.8c0.5-2,2.2-4.4,4.7-4.1c1.1-1.2,4.3-2.4,2.9-4.5
	c-6.2-6.2-5.9-16.9-15.8-18.8c-3.5-1.4-4.3-5-4.7-8.4C498.8,357.9,491.8,356.6,486,356.5L486,356.5z"/>
<path class="st2" d="M491.7,421.3c6.1,5.6,3.9,13.7,3.5,21.3c-0.9,4.5,4.8,1.9,6.6,4.3c3.7,5.5,1.6,13.5,0.2,19.5
	c3.2-4.9,6.9-9.2,9.4-14.6c-0.1-2,2.5-3,2.4-5.5c1.1-3.5-3-1.9-4.7-2.3c-1.4-0.4-3-1.3-2.5-3.2c3.1-6,0.2-13.1-1-19.1
	c-1.4-4.9,0.6-11.5-1.7-15.8C500.2,411.1,488.8,412.3,491.7,421.3L491.7,421.3z"/>
<path class="st2" d="M502.8,336.4c10.6,10.8,18.4,21.6,29.9,32c0.2-4.7-0.4-9-0.6-13.5c-1.7-3.2-4.8-5.6-7.4-8
	C516.2,346,511.8,334.6,502.8,336.4L502.8,336.4z"/>
<path class="st2" d="M530.7,393.4c0.2,1.1,0.7,2,1.2,3.1c4.7,7.7,9.1,15.6,12.3,23.8c-1-8.9,5-19.8-2.9-26.7
	c-1.1-2.9-4.6-1.9-6.9-1.7L530.7,393.4L530.7,393.4z"/>
<path class="st2" d="M559.4,480.7c3.3,1.6,7.7-1.2,10.9-3.1c3-0.7,5.5,1,7.8,2.5c0.9,1.9,0,3.7,0.4,5.5c7.2,2,14.2,4.7,20.6,8.8l2-2
	c0.5-5.1-3.6-8.9-7.4-11.7c-2.5-1.4-6.2-0.6-8-2.9c1.2-1.9,1.2-4.8,1.1-6.9c-3.9,0-6.5-1.2-9.7-3.1c-2-0.6-3.8-2.3-5.5,0
	C565.5,471.8,565.1,477.8,559.4,480.7L559.4,480.7z"/>
<path class="st2" d="M567.8,330.3c3-0.9,6.1-1.7,8.6-3.8c8-7.3,19.6-2.4,28.9-2.5c-1.8-3.2-4.3-6.5-6.6-9.2
	c-3.4-1.3-6.5-2.9-10.3-2.9c-8.1-4.8-13.6,3.2-19.9,7.2C566.9,322.2,566.1,327,567.8,330.3L567.8,330.3z"/>
<path class="st2" d="M568,354.9c0-0.4,0-0.7,0.4-0.8c1.1,0.9-0.1,3.2,1.7,3.7c3.1-1.6,6-3.7,8.8-5.7c8,0,12.8-7.8,20.7-7.8
	c13.2,2.4,26.2,5,37.7,11.5c-0.8-7.7-7.5-14.8-14.3-18.3c-3.8-1.3-6.8,0.7-9.6,2.9c-8,5-3.8-7.3-9.4-7.5c-7.3,2.3-14.8,4.8-23,4.1
	c-4.8,1.8-8.1,6.2-13.5,5.7C567.2,346.5,566.6,351.3,568,354.9L568,354.9z"/>
<path class="st2" d="M573.5,381.5c2.5,2.7,6.7,2.2,10.3,2.7l10.4-4.1c0.1-1.9-3.1-2.4-2.4-4.5c2.9-3.2,6.8-0.9,10.4-2.3
	c5-0.7,10.2-5.7,15.2-2c-0.1,0.6,0.2,1.4-0.2,2c-1.6,3.7,1.1,6,3.9,7.4c5.9,1.1,11.3,6.5,17.2,4.1c-0.6-4.9-1.9-9.4-3.1-14.1
	c-4.9-0.8-8.4-4.9-12.9-6.6c-2,1.9-4.7,3.4-7.2,3.1c-9.2-2.2-20.2-7.9-29.5-2c-3.4,4.1-9.3,2.9-13.9,4.7
	C571.9,373.9,572.4,377.8,573.5,381.5L573.5,381.5z"/>
<path class="st2" d="M577.4,452.6c-0.7,2-2.7,5.4,1,6.3c7.6,0.2,17.5-3.7,23.4,2.3c2,1.6,1.1,4.8,0.9,6.8l10,8.4
	c1-5,2.8-9.6,2.9-14.9c-0.8-3.8-2.7-7.5-6.1-10c-6.6,0-10.4-7.7-17.5-6.8c-3.7-0.8-6.9,2.5-10.6,2.5
	C579.8,448.8,578.9,450.8,577.4,452.6L577.4,452.6z"/>
<path class="st2" d="M580.3,396.2c1.6,3.2,3.4,8.5,6.3,8.8c7-3.1,17.4-5,25.2-1.7c2.6,0.5,2.6,3.5,2,5.4c4.1,2.4,9,4.3,13.3,6.9
	l-1.2-7.2c-0.2-7.8-10-8.5-10.6-16.1c-8-2.6-17-3.5-25.5-1.4c-2.7,2.5-6.7,2.2-10,2.9C579.6,394.8,580.2,395.4,580.3,396.2
	L580.3,396.2z"/>
<path class="st2" d="M582.3,435c4.7-1.3,7.7-6.4,12.7-6.9c7.6,0.1,14.5,3.2,19.2,9.8c2.9,1.9,2.3,6.8,6,6.8
	c-1.1-5.9,0.8-11.2,0.6-17.2c-5-8.4-17.4-1.9-22.1-11.7l-8.8,0.6c-6.3,1.6-4.7,9-5.5,14C583.7,431.9,582.2,433.1,582.3,435
	L582.3,435z"/>
<path class="st2" d="M626.2,487.3c3.7,7.4,11.8,13,12.7,21.5c1.9-2.3,3.2-4.9,4.5-7.4c-0.1-2.4-2.9-2.4-3.9-4.3
	c-1.1-3.1,0.6-5.9,1.1-8.6c-1.6-4.4-5.3-8.6-9.5-11.2L626.2,487.3L626.2,487.3z"/>
<path class="st2" d="M640.9,468.4l8.6,11.7c3.7-5.9,3.7-14.5,2.3-21.5c-0.8-1.3-2.4-3.5-4.5-2.5C644,459.4,643.5,464.6,640.9,468.4
	L640.9,468.4z"/>
<path class="st2" d="M605.9,141.1c3.1,1.6,6.1,3,9.8,3.2c2.5-1.3,5.7-2.3,8.8-1.4c4.4,2.9,9.8-0.6,14.9-0.4
	c-4.5-4.3-9.7-6.9-14.9-9.4C617.8,134.6,612.5,139.3,605.9,141.1L605.9,141.1z"/>
<path class="st2" d="M652.6,152.4c6.3,0.6,10.9,6.2,15.2,10.9c5.4,0.8,9.4,4.7,12.7,8.6l-2-6.3c-1.4-6.3-5.4-11.3-9.5-16.3
	C663.3,149.6,657.6,150.1,652.6,152.4L652.6,152.4z"/>
<path class="st0" d="M206.5,99.9l3.5,0.4c9.3,4.7,24.4,7,25.2,20.6c-9.5,3.7-18.5,8.7-26.1,16.4c-5.7-5.9-17.3-2.6-19.2-12.9
	C191.7,114.6,195.1,102.4,206.5,99.9L206.5,99.9z"/>
<path class="st0" d="M215.5,160.6c10.9-1,21.4,0.6,32.6-0.4c2.7,1.2,5.6,3.6,6.9,6.3c-0.4,12.9-4.3,25.2-4.9,38.5
	c-4.9,2-9.7,6.1-10.9,11.5c-4.4,1.3-8.4,3.9-12.7,6c-1.9-4.1-1.6-10.2,1.8-13.5c4.7-6.6,16.7-5,15.8-15.4c3.1-5,0.1-11.5,0.2-16.7
	c-1.2-4-2.4,1.3-4.3,1.2c-3.8,0.8-7.8,1.1-11.1-0.9c-2.5-2.6-5.6-4.8-6.3-8.4c-3.4-1.7-7.3-4.3-9-7.8L215.5,160.6L215.5,160.6z"/>
<path class="st0" d="M228.6,238.5c5.1,0.7,10.5-1.6,14.9,1c-0.9,1.7-3.5,2.4-5.5,2.9l-8,3.7C227.1,245.3,228.7,240.5,228.6,238.5
	L228.6,238.5z"/>
<path class="st0" d="M249.5,138.7c5.1-1.7,10.6-5.1,16.1-3.5c-3.9,4-7,9.1-10,13.9l-16.4-0.4C241.1,144.4,245.6,140.8,249.5,138.7
	L249.5,138.7z"/>
<path class="st0" d="M297.5,134.7c6.8-1.2,6.4,7.7,12.7,8c1.1,1.4,2.7,2.7,2,4.9c-3.6,1.4-8.8,0.7-12.9,1.7
	c-5.4-3-1.9-12.3-10.4-11.7c-0.5-0.7-1.4-2.2-0.2-2.6C291.3,134,294.7,134.4,297.5,134.7L297.5,134.7z"/>
<path class="st0" d="M293.2,166.7c3-4.2,7.5-4.5,11.8-5.4l31,0.6c1.3,1.2-1.2,2.3-1.2,3.7c-1.9,1.8-4.7,2.3-6.3,3.9
	c-4.1,0.1-3.7,4.9-6.6,6.9c-4.4,4.4-10.9,2.4-16,1.7c-1.8-1.3-3.8-3.1-4.7-5.2l-1.4,1.4c1.8,6.7,1.3,14.1,2.7,20.9l7.4,4.9
	c0.1,11,13,8,18.6,14.1c-1.3,4-3.9,7.3-6.8,10.6c-4.5-4.4-9.7-7.3-15.2-9.2c-0.5-6.4-7.5-10.3-11.5-13.5c-1.1-11.7-1.3-23.7-3.2-35
	L293.2,166.7L293.2,166.7z"/>
<path class="st0" d="M304.4,240.5h14.4L317,248l-14.4-6.1C302.3,240.8,303.6,240.4,304.4,240.5L304.4,240.5z"/>
<path class="st0" d="M330.2,105.1l10.6-3.4c6.1,2.9,11.8,6.4,17.4,10.5c4.4,8.1,3.7,19.1,1.7,28.2c-3.2,3.6-10.3,0-12.9,5.7h-0.5
	c-3.9-11.2-15.2-21.3-25.6-26.4C322.7,114,324.5,108.4,330.2,105.1L330.2,105.1z"/>
</svg>
